<?xml version="1.0" encoding="UTF-8" standalone="no"?>
<svg
   xmlns:dc="http://purl.org/dc/elements/1.1/"
   xmlns:cc="http://creativecommons.org/ns#"
   xmlns:rdf="http://www.w3.org/1999/02/22-rdf-syntax-ns#"
   xmlns:svg="http://www.w3.org/2000/svg"
   xmlns="http://www.w3.org/2000/svg"
   xmlns:sodipodi="http://sodipodi.sourceforge.net/DTD/sodipodi-0.dtd"
   xmlns:inkscape="http://www.inkscape.org/namespaces/inkscape"
   width="182.82857mm"
   height="181.95015mm"
   viewBox="0 0 182.82858 181.95016"
   version="1.1"
   id="svg8"
   sodipodi:docname="logo-green.svg"
   inkscape:version="1.0.2 (e86c8708, 2021-01-15)">
  <defs
     id="defs2" />
  <sodipodi:namedview
     id="base"
     pagecolor="#ffffff"
     bordercolor="#666666"
     borderopacity="1.0"
     inkscape:pageopacity="0.0"
     inkscape:pageshadow="2"
     inkscape:zoom="0.95612403"
     inkscape:cx="54.777554"
     inkscape:cy="392.52033"
     inkscape:document-units="mm"
     inkscape:current-layer="layer3"
     inkscape:document-rotation="0"
     showgrid="false"
     inkscape:window-width="1920"
     inkscape:window-height="1105"
     inkscape:window-x="0"
     inkscape:window-y="25"
     inkscape:window-maximized="0"
     inkscape:snap-text-baseline="true"
     inkscape:snap-center="false" />
  <metadata
     id="metadata5">
    <rdf:RDF>
      <cc:Work
         rdf:about="">
        <dc:format>image/svg+xml</dc:format>
        <dc:type
           rdf:resource="http://purl.org/dc/dcmitype/StillImage" />
        <dc:title></dc:title>
      </cc:Work>
    </rdf:RDF>
  </metadata>
  <g
     inkscape:groupmode="layer"
     id="layer4"
     inkscape:label="c-letter"
     style="display:inline"
     transform="translate(2.9488972,5.8333321)">
    <path
       id="text391"
       style="font-style:normal;font-variant:normal;font-weight:normal;font-stretch:normal;font-size:225.507px;line-height:1.25;font-family:'Heiti SC';-inkscape-font-specification:'Heiti SC, Normal';font-variant-ligatures:normal;font-variant-caps:normal;font-variant-numeric:normal;font-variant-east-asian:normal;fill:#000000;stroke-width:1.17452"
       sodipodi:type="inkscape:offset"
       inkscape:radius="3.5554283"
       inkscape:original="M 68.289062 0.61523438 C 48.446858 0.61523438 32.578595 6.848009 20.197266 19.375 A 2.1358711 2.1358711 0 0 1 20.1875 19.382812 C 7.7641621 31.806151 1.6445313 46.567197 1.6445312 64.103516 C 1.6445313 81.645695 7.6926664 96.244895 19.955078 108.36133 C 32.354742 120.46491 47.565994 126.46289 66.035156 126.46289 C 77.922544 126.46289 88.859612 124.05126 98.939453 119.23047 A 2.1358711 2.1358711 0 0 1 98.951172 119.22461 C 108.49049 114.72751 116.1814 108.28557 122.26562 99.982422 L 111.25 92.410156 C 99.416161 106.22106 84.724339 113.36914 67.613281 113.36914 C 52.859071 113.36913 40.390943 108.38534 30.6875 98.525391 C 21.017837 88.699765 16.091797 76.706017 16.091797 62.974609 C 16.091797 49.236686 21.116859 37.503027 30.972656 28.271484 C 30.973715 28.270492 30.97355 28.26857 30.974609 28.267578 C 40.823748 18.893781 53.178988 14.160156 67.613281 14.160156 C 85.26807 14.160156 99.936327 21.23261 111.10742 34.927734 L 122.3125 27.859375 C 116.9022 19.583334 109.70911 13.030568 100.46289 8.2714844 A 2.1358711 2.1358711 0 0 1 100.45117 8.265625 C 90.687787 3.1653467 80.004673 0.61523438 68.289062 0.61523438 z "
       d="m 68.289062,-2.9394531 c -20.583651,0 -37.581495,6.6246994 -50.615234,19.8085941 -0.001,0.001 -9.46e-4,0.0029 -0.002,0.0039 -9.96e-4,0.001 -0.0029,9.45e-4 -0.0039,0.002 a 3.5557838,3.5557838 0 0 0 -0.146485,0.160156 C 4.6223711,30.011047 -1.9101561,45.816267 -1.9101562,64.103516 c 1e-7,18.359398 6.5048518,34.077892 19.3671872,46.787104 a 3.5557838,3.5557838 0 0 0 0.01367,0.0156 c 13.019598,12.70871 29.325526,19.11133 48.564453,19.11133 12.252807,0 23.649517,-2.49737 34.134764,-7.45703 a 3.5557838,3.5557838 0 0 0 0.29688,-0.11914 c 0.002,-0.001 0.004,-0.003 0.006,-0.004 10.05423,-4.74113 18.25119,-11.60719 24.66015,-20.35352 a 3.5557838,3.5557838 0 0 0 -0.85351,-5.031246 l -11.01563,-7.572265 a 3.5557838,3.5557838 0 0 0 -4.71289,0.617187 C 97.268597,103.26474 83.734161,109.81445 67.613281,109.81445 53.659723,109.81444 42.27627,105.23287 33.220703,96.03125 24.142202,86.806321 19.646484,75.855695 19.646484,62.974609 c 0,-12.870919 4.557053,-23.491256 13.75586,-32.107421 10e-7,-10e-7 0.0019,-0.0039 0.002,-0.0039 -10e-7,1e-6 0.0019,-0.0019 0.002,-0.002 a 3.5557838,3.5557838 0 0 0 0.01953,-0.01758 c 9.206524,-8.762196 20.530526,-13.128906 34.1875,-13.128906 16.70526,0 30.151783,6.482493 40.738279,19.460937 a 3.5557838,3.5557838 0 0 0 4.65235,0.759766 l 11.20507,-7.068359 a 3.5557838,3.5557838 0 0 0 1.08008,-4.953126 C 119.61772,17.238713 111.99208,10.289769 102.37305,5.2773438 a 3.5557838,3.5557838 0 0 0 -0.25391,-0.1503907 3.5557838,3.5557838 0 0 0 -0.0215,-0.011719 c -0.003,-0.00151 -0.005,-0.00435 -0.008,-0.00586 l -0.002,0.00195 C 91.814681,-0.2533237 80.516893,-2.9394531 68.289062,-2.9394531 Z m 30.5625,14.3808591 a 3.5557838,3.5557838 0 0 0 0.03125,0.01367 v 0.002 c -2.660753,-1.320054 2.621358,1.320728 -0.03125,-0.01563 z M 22.425781,22.144531 c -2.314099,1.862226 2.299573,-1.827159 -0.02539,0.02148 v -0.002 a 3.5557838,3.5557838 0 0 0 0.02539,-0.01953 z"
       transform="matrix(1.4308241,0,0,1.3684883,-0.21579972,-1.8107249)" />
  </g>
  <g
     inkscape:groupmode="layer"
     id="layer5"
     inkscape:label="o-letter"
     style="display:inline"
     transform="translate(2.9488972,5.8333321)">
    <g
       aria-label="o"
       transform="matrix(1.4056435,0,0,1.3112684,1.3377346,0.30168749)"
       id="text395"
       style="font-style:normal;font-variant:normal;font-weight:300;font-stretch:normal;font-size:157.467px;line-height:1.25;font-family:'Heiti SC';-inkscape-font-specification:'Heiti SC, Light';font-variant-ligatures:normal;font-variant-caps:normal;font-variant-numeric:normal;font-variant-east-asian:normal;fill:none;stroke-width:0.984173">
      <path
         id="path509"
         style="font-style:normal;font-variant:normal;font-weight:300;font-stretch:normal;font-size:157.467px;font-family:'Heiti SC';-inkscape-font-specification:'Heiti SC, Light';font-variant-ligatures:normal;font-variant-caps:normal;font-variant-numeric:normal;font-variant-east-asian:normal;fill:none;stroke-width:0.984173"
         sodipodi:type="inkscape:offset"
         inkscape:radius="4.1392293"
         inkscape:original="M 66.125 20.367188 C 54.05253 20.367187 43.764936 24.724326 35.261719 33.4375 C 26.863479 42.150674 22.664062 52.649215 22.664062 64.931641 C 22.664062 77.004111 26.863479 87.396202 35.261719 96.109375 C 43.659958 104.71757 54.000777 109.02148 66.283203 109.02148 C 78.565628 109.02148 88.853222 104.71757 97.146484 96.109375 C 105.54473 87.396202 109.74414 76.950885 109.74414 64.773438 C 109.74414 52.59599 105.4915 42.150674 96.988281 33.4375 C 88.590041 24.724326 78.302447 20.367188 66.125 20.367188 z M 66.125 30.917969 C 75.048129 30.917969 82.711576 34.330727 89.115234 41.154297 C 95.62387 47.872889 98.878906 55.849827 98.878906 65.087891 C 98.878906 74.430933 95.677096 82.409824 89.273438 89.023438 C 82.974758 95.532073 75.20486 98.787109 65.966797 98.787109 C 56.833711 98.787109 49.170264 95.532074 42.976562 89.023438 C 36.782861 82.514802 33.6875 74.589136 33.6875 65.246094 C 33.6875 55.903052 36.889311 47.872889 43.292969 41.154297 C 49.696626 34.330727 57.306848 30.917969 66.125 30.917969 z "
         d="m 66.125,16.228516 c -13.068411,-10e-7 -24.639171,4.904517 -33.826172,14.318359 a 4.1396432,4.1396432 0 0 0 -0.01758,0.01758 c -9.0727,9.412926 -13.755859,21.141281 -13.755859,34.367188 0,13.032359 4.694849,24.649984 13.755859,34.050781 A 4.1396432,4.1396432 0 0 0 32.298828,99 c 9.102666,9.33023 20.734992,14.16016 33.984375,14.16016 13.249382,0 24.842116,-4.83622 33.843747,-14.179691 9.06616,-9.406668 13.75586,-21.078495 13.75586,-34.207031 0,-13.137787 -4.75405,-24.817105 -13.925779,-34.21875 C 90.866793,21.129235 79.284556,16.228516 66.125,16.228516 Z m 0,18.828125 c 7.86773,0 14.225376,2.805536 19.972656,8.929687 a 4.1396432,4.1396432 0 0 0 0.04492,0.04883 c 5.84926,6.037946 8.597656,12.786977 8.597656,21.052735 0,8.397381 -2.715409,15.142906 -8.441406,21.05664 -5.595296,5.781805 -12.066274,8.503907 -20.332031,8.503907 -8.149604,0 -14.498795,-2.705798 -19.992188,-8.478516 -5.51166,-5.791915 -8.148437,-12.495007 -8.148437,-20.923828 0,-8.397381 2.720274,-15.211288 8.46289,-21.236328 a 4.1396432,4.1396432 0 0 0 0.02148,-0.02344 C 52.065658,37.853832 58.374811,35.056641 66.125,35.056641 Z" />
    </g>
  </g>
  <g
     inkscape:groupmode="layer"
     id="layer6"
     inkscape:label="d-letter"
     style="display:inline"
     transform="translate(2.9488972,5.8333321)">
    <path
       id="text399"
       style="font-style:normal;font-variant:normal;font-weight:normal;font-stretch:normal;font-size:101.712px;line-height:1.25;font-family:'Heiti SC';-inkscape-font-specification:'Heiti SC, Normal';font-variant-ligatures:normal;font-variant-caps:normal;font-variant-numeric:normal;font-variant-east-asian:normal;fill:#000000;stroke-width:1.0595"
       sodipodi:type="inkscape:offset"
       inkscape:radius="3.6589744"
       inkscape:original="M 86.568359 17.076172 L 86.568359 46.369141 C 81.075911 39.791765 74.260007 36.501953 66.123047 36.501953 C 58.053895 36.501953 51.206189 39.384758 45.578125 45.148438 C 39.950061 50.844309 37.134766 57.72577 37.134766 65.794922 C 37.134766 73.864074 39.916307 80.781242 45.476562 86.544922 C 51.036818 92.308602 57.749507 95.189453 65.615234 95.189453 C 73.54877 95.189453 80.533447 91.86784 86.568359 85.222656 L 86.568359 93.359375 L 94.806641 93.359375 L 94.806641 17.076172 L 86.568359 17.076172 z M 66.326172 44.638672 C 72.293276 44.638672 77.211116 46.707462 81.076172 50.84375 C 85.009036 54.91223 86.974609 60.032597 86.974609 66.203125 C 86.974609 72.305845 84.872065 77.35675 80.667969 81.357422 C 76.463873 85.358094 71.683004 87.359375 66.326172 87.359375 C 60.6303 87.359375 55.748167 85.223076 51.679688 80.951172 C 47.611208 76.679268 45.578125 71.693919 45.578125 65.998047 C 45.578125 60.234367 47.543699 55.250971 51.476562 51.046875 C 55.477234 46.774971 60.426876 44.638672 66.326172 44.638672 z "
       d="m 86.568359,13.417969 a 3.6593403,3.6593403 0 0 0 -3.658203,3.658203 V 38.234375 C 77.980758,34.790797 72.32725,32.84375 66.123047,32.84375 c -8.939177,0 -16.920194,3.359334 -23.158203,9.746094 -0.001,0.001 -0.0029,9.16e-4 -0.0039,0.002 -6.225178,6.307647 -9.484376,14.290022 -9.484376,23.203125 0,8.910016 3.214661,16.913395 9.367188,23.291016 6.158924,6.38425 14.012349,9.761718 22.771484,9.761718 6.263976,0 12.087651,-2.027785 17.294922,-5.660156 v 0.171875 a 3.6593403,3.6593403 0 0 0 3.658203,3.658203 h 8.238282 a 3.6593403,3.6593403 0 0 0 3.658203,-3.658203 V 17.076172 A 3.6593403,3.6593403 0 0 0 94.806641,13.417969 Z M 66.326172,48.296875 c 5.121395,0 8.852687,1.595227 12.076172,5.044922 a 3.6593403,3.6593403 0 0 0 0.04297,0.04492 c 3.290038,3.403487 4.871094,7.422903 4.871094,12.816406 0,5.262313 -1.638605,9.14346 -5.169922,12.503906 -3.64201,3.465785 -7.374794,4.994141 -11.820312,4.994141 -4.78098,0 -8.515638,-1.618958 -11.996094,-5.273438 -3.507858,-3.683251 -5.09375,-7.604504 -5.09375,-12.429687 0,-4.930847 1.548627,-8.854976 4.910156,-12.449219 l 0.002,-0.002 c 3.386939,-3.615624 7.162764,-5.25 12.177734,-5.25 z"
       transform="matrix(1.2187819,0,0,1.1678369,15.201135,8.8535574)" />
  </g>
  <g
     inkscape:groupmode="layer"
     id="layer7"
     inkscape:label="e-letter"
     style="display:inline"
     transform="translate(2.9488972,5.8333321)">
    <path
       id="text403"
       style="font-style:normal;font-variant:normal;font-weight:normal;font-stretch:normal;font-size:52.9167px;line-height:1.25;font-family:'Heiti SC';-inkscape-font-specification:'Heiti SC, Normal';font-variant-ligatures:normal;font-variant-caps:normal;font-variant-numeric:normal;font-variant-east-asian:normal;fill:none;stroke-width:1.28323"
       sodipodi:type="inkscape:offset"
       inkscape:radius="0.7683714"
       inkscape:original="M 67.416016 48.744141 C 63.217958 48.744141 59.689533 50.243575 56.832031 53.242188 C 54.009807 56.2408 52.599609 59.839051 52.599609 64.037109 C 52.599609 68.235167 54.009807 71.835371 56.832031 74.833984 C 59.654255 77.797319 63.235049 79.277344 67.574219 79.277344 C 70.713943 79.277344 73.412143 78.555765 75.669922 77.109375 C 77.927701 75.627707 79.886865 73.350419 81.544922 70.28125 L 77.839844 68.376953 C 75.405676 72.927789 71.879204 75.203125 67.257812 75.203125 C 64.541422 75.203125 62.194307 74.250704 60.21875 72.345703 C 58.278471 70.405424 57.221311 67.84883 57.044922 64.673828 L 82.337891 64.673828 C 82.232057 59.734936 80.767536 55.853474 77.945312 53.03125 C 75.123089 50.173748 71.614074 48.744141 67.416016 48.744141 z M 67.416016 52.978516 C 69.850184 52.978516 72.00137 53.667135 73.871094 55.042969 C 75.740817 56.418803 76.941536 58.341101 77.470703 60.810547 L 57.574219 60.810547 C 59.196998 55.589433 62.477124 52.978516 67.416016 52.978516 z "
       d="m 67.416016,47.976562 c -4.38102,0 -8.15345,1.601638 -11.140625,4.736329 a 0.76844824,0.76844824 0 0 0 -0.002,0.002 c -2.944928,3.128984 -4.441407,6.952135 -4.441407,11.322265 0,4.370131 1.496365,8.195113 4.441407,11.324219 a 0.76844824,0.76844824 0 0 0 0.002,0.002 c 2.957956,3.105854 6.784938,4.681641 11.298828,4.681641 3.25745,0 6.115592,-0.755295 8.509765,-2.289063 a 0.76844824,0.76844824 0 0 0 0.0078,-0.0039 c 2.389248,-1.567944 4.426089,-3.953446 6.128906,-7.105469 a 0.76844824,0.76844824 0 0 0 -0.324219,-1.048828 l -3.705078,-1.904297 a 0.76844824,0.76844824 0 0 0 -1.029297,0.320313 c -2.338835,4.372606 -5.535109,6.421875 -9.904297,6.421875 -2.5343,0 -4.652507,-0.859481 -6.5,-2.638672 -1.616919,-1.619213 -2.473776,-3.755689 -2.771484,-6.355469 h 24.351563 a 0.76844824,0.76844824 0 0 0 0.767578,-0.783203 C 82.996614,59.578367 81.46694,55.469198 78.492188,52.492188 l -0.002,-0.002 c -2.955639,-2.99157 -6.702697,-4.513671 -11.074218,-4.513672 z m 0,5.769532 c 2.289254,0 4.258301,0.634389 6,1.916015 1.458959,1.073574 2.365476,2.566811 2.939453,4.38086 H 58.751953 c 0.755088,-1.940685 1.714529,-3.499929 2.978516,-4.50586 1.493248,-1.188386 3.351499,-1.791015 5.685547,-1.791015 z"
       transform="matrix(1.2419226,0,0,1.2050728,12.312798,8.8257041)" />
  </g>
  <g
     inkscape:groupmode="layer"
     id="layer1"
     inkscape:label="filling-e-down">
    <path
       style="display:inline;fill:#000000;stroke-width:0.941358"
       d="m 343.35961,366.75429 c -16.98945,-4.57487 -28.5008,-17.4635 -31.70092,-35.49377 l -0.62654,-3.53009 h 57.46549 l 63.01216,-1.47911 -0.36978,6.23972 c 0,0 1.05817,14.04964 -0.1813,14.04964 -0.46662,0 -16.32446,0.019 -21.67057,0.0163 -4.48003,-0.002 -13.51021,0.0163 -14.51628,0.0163 -1.21445,0 5.43362,-7.28294 2.61491,-3.043 -5.85688,8.81001 -14.35864,16.67224 -21.55852,19.93682 -10.33388,4.6856 -22.64615,5.9321 -32.46865,3.28713 z"
       id="path245"
       sodipodi:nodetypes="sscccssssssss"
       transform="matrix(0.26458333,0,0,0.26458333,5.0861325,6.8247884)" />
  </g>
  <g
     inkscape:groupmode="layer"
     id="layer3"
     inkscape:label="bookmark"
     style="display:inline;"
     transform="translate(2.9488972,5.8333321)">
    <path
       fill="currentColor"
       d="M 115.88127,133.21167 V 14.659345 c 0,-6.7733295 1.4854,-12.2640337 3.31778,-12.2640337 h 19.90679 c 1.83237,0 3.31777,5.4907042 3.31777,12.2640337 V 133.21167 l -13.27118,-10.34076 z"
       id="path405"
       style="fill:#000000;stroke-width:0.132893"
       sodipodi:nodetypes="cssssccc" />
    <path
       style="fill:#000000;stroke-width:0.941358"
       d="m 315.83309,301.13707 c 0.017,-2.26384 5.82969,-11.30088 9.86318,-15.33437 18.51257,-18.51258 55.91128,-12.57863 67.73112,10.7467 1.32676,2.61823 2.41229,4.98631 2.41229,5.26239 0,0.27609 -18.00347,0.50197 -40.00771,0.50197 -31.38331,0 -40.00581,-0.25366 -39.99888,-1.17669 z"
       id="path243"
       transform="matrix(0.26458333,0,0,0.26458333,2.1372352,0.9914564)" />
    <path
       style="fill:#0000ff;stroke-width:1.04589"
       d="M 339.53634,686.34138 C 303.57106,684.18341 265.96823,676.87571 233.26697,665.68908 195.03898,652.61182 159.42305,632.8006 124.45786,605.16446 112.08261,595.38319 81.668165,564.70037 70.882732,551.11659 27.752712,496.79623 4.5183327,434.74182 1.2193122,365.05945 -2.6380385,283.58393 18.862296,211.31774 65.401722,149.33171 122.2734,73.584108 200.32708,25.246664 293.26065,8.2221816 399.76744,-11.288778 505.04875,6.1989115 589.56312,57.439327 c 37.18076,22.542414 72.94532,55.910703 95.8711,89.447603 6.50169,9.51098 6.28331,18.12393 -0.6242,24.61818 -3.54384,3.33181 -60.79907,38.00112 -67.11751,40.64115 -9.38802,3.92256 -15.55541,0.91911 -29.07938,-14.16136 -9.21855,-10.27952 -18.33721,-18.93432 -32.27909,-30.63706 -3.22583,-2.70774 -6.16607,-4.92318 -6.53386,-4.92318 -0.36778,0 -0.78769,81.35161 -0.93313,180.78136 l -0.26442,180.78136 -24.54039,-19.11506 c -13.49723,-10.51328 -25.02816,-18.81554 -25.62429,-18.44947 -0.59615,0.36607 -11.79119,9.04463 -24.87788,19.28569 l -23.79399,18.62011 v -28.83436 -28.83437 l -4.44503,2.72506 c -15.55205,9.53434 -34.9912,16.987 -52.033,19.94863 -12.37878,2.15126 -41.26365,1.55545 -53.34036,-1.10027 -28.48197,-6.26329 -52.43449,-19.50441 -73.78573,-40.78923 -28.47736,-28.3888 -42.34107,-61.52437 -42.37129,-101.27136 -0.0289,-37.98591 12.59779,-69.7689 38.60325,-97.1696 31.44235,-33.12928 71.47723,-49.52746 116.20589,-47.59762 23.97544,1.03442 43.41327,6.76691 64.62946,19.06014 l 6.53681,3.7876 v -54.8831 -54.88308 l -4.96797,-1.06019 c -22.80095,-4.86582 -42.04634,-6.74129 -68.76723,-6.70137 -32.30968,0.0482 -54.69709,2.85312 -81.57938,10.22086 -42.05985,11.52752 -77.54043,32.11149 -110.49044,64.10078 -21.46369,20.83788 -34.75246,38.59592 -45.93815,61.38803 -22.65913,46.17056 -28.02885,104.55184 -14.58702,158.59477 16.21239,65.18198 66.11471,125.07982 130.18244,156.25818 31.96716,15.55673 61.58045,22.93545 103.24936,25.72655 53.17631,3.56191 105.72332,-7.03025 151.13512,-30.46504 28.18853,-14.54672 50.3744,-31.15802 76.87209,-57.55672 18.86817,-18.79768 21.88223,-20.71982 30.26837,-19.303 2.87381,0.48552 13.38078,6.78792 35.19217,21.1093 17.10233,11.22941 32.63712,21.88046 34.52175,23.66898 4.06662,3.85924 6.0029,9.52081 5.02993,14.70718 -0.87136,4.64474 -8.1721,14.44862 -22.86169,30.70006 -33.18322,36.71135 -74.69932,65.63356 -124.24991,86.55874 -62.39383,26.34887 -132.97023,38.12341 -203.23918,33.90718 z m 53.68489,-263.07381 c 23.38846,-5.70764 47.60027,-26.57637 54.92717,-47.34302 l 1.52489,-4.322 h -17.39307 -17.39307 l -7.56375,7.33416 c -8.82111,8.55335 -15.50475,11.98098 -26.7803,13.73394 -13.90276,2.16141 -26.96237,-2.05651 -36.74416,-11.86745 -6.03317,-6.05115 -9.25297,-11.84102 -11.5145,-20.70544 l -1.46758,-5.75239 49.27719,-0.63454 c 27.10245,-0.34899 53.89842,-0.70198 59.54658,-0.78442 l 10.26939,-0.14987 -0.33344,-16.55899 -0.33344,-16.55897 -4.46121,-8.99572 c -5.15923,-10.40324 -16.67941,-23.45665 -26.71761,-30.27345 -18.72715,-12.71737 -47.252,-15.89243 -71.44041,-7.95193 -12.88272,4.2291 -29.51041,17.19733 -38.149,29.7531 -17.66638,25.67719 -18.00358,61.71375 -0.81324,86.90923 11.41115,16.72505 29.68129,30.08446 46.84101,34.25089 8.37549,2.03359 30.2371,1.98665 38.71855,-0.0831 z"
       id="path851"
       transform="matrix(0.26458333,0,0,0.26458333,-2.9488972,-5.8333321)" />
    <path
       style="fill:#0066ff;stroke-width:1.04589"
       d="m 338.13225,326.93902 -2.33839,-0.45131 1.99265,-3.90592 c 3.64288,-7.14064 11.00254,-14.23583 18.0582,-17.40929 15.44112,-6.94502 36.81899,-3.54414 48.4834,7.71293 3.82365,3.69012 9.87773,12.23927 9.87773,13.94864 0,0.84703 -71.71594,0.94597 -76.07359,0.10495 z"
       id="path853"
       transform="matrix(0.26458333,0,0,0.26458333,-2.9488972,-5.8333321)" />
    <path
       style="fill:#5599ff;stroke-width:1.04589"
       d="M 335.59886,685.74628 C 275.65117,680.89197 219.99741,664.51771 174.51842,638.35373 144.10321,620.85592 125.20401,606.28961 99.179977,580.2876 76.328472,557.45545 68.635359,548.36828 55.325169,528.48596 20.522192,476.4984 3.6886558,422.73274 1.785719,357.48304 -0.62841127,274.70504 23.111922,203.08258 74.240924,138.89215 85.222027,125.10581 117.74009,92.411588 129.9018,82.929731 187.74896,37.829305 243.93416,14.839026 322.0023,4.3246193 c 15.7532,-2.1216786 22.07243,-2.3948425 55.43214,-2.3961839 33.22255,-0.00134 39.68219,0.2750056 54.90919,2.3489997 47.58913,6.4818769 85.84946,17.7248899 124.98379,36.7271859 34.83577,16.915066 56.4938,31.510787 84.6111,57.020895 17.06146,15.479424 40.90062,43.778714 45.5975,54.128464 4.30137,9.47823 1.97739,15.49768 -8.77701,22.73371 -9.01919,6.06849 -52.65449,32.36149 -59.1776,35.65821 -5.58285,2.82152 -10.86576,3.01867 -15.57896,0.58138 -1.89884,-0.98194 -9.41233,-7.93818 -16.69662,-15.45832 -12.22263,-12.61836 -35.02641,-33.2443 -36.75449,-33.2443 -1.66841,0 -2.10718,40.82443 -2.1105,196.36574 -0.002,89.88112 -0.27199,163.42022 -0.60018,163.42022 -0.32819,0 -7.74093,-5.57513 -16.47276,-12.38918 -25.10666,-19.59245 -32.04762,-24.3213 -34.0364,-23.18885 -0.94135,0.53602 -11.83054,8.91767 -24.19818,18.62589 l -22.48662,17.65131 -0.27828,-28.06566 c -0.15306,-15.4361 -0.46711,-28.06565 -0.69788,-28.06565 -0.23079,0 -5.75337,2.78799 -12.2724,6.19553 -13.56907,7.09264 -29.40338,12.85783 -41.74419,15.19884 -11.39274,2.16116 -39.39127,2.16041 -51.81244,-10e-4 -28.13264,-4.89626 -54.0587,-18.63894 -75.83452,-40.19773 -22.57749,-22.3525 -34.66824,-43.80766 -40.83723,-72.46616 -1.89297,-8.79388 -2.30398,-14.06175 -2.30398,-29.5293 0,-22.07201 2.05236,-33.96555 8.87134,-51.40997 7.62566,-19.50808 17.54104,-33.72712 35.67012,-51.15237 20.20909,-19.42451 41.0529,-30.91217 68.76024,-37.8959 10.17543,-2.56475 12.72585,-2.78152 32.99162,-2.80411 17.83915,-0.0199 23.53493,0.34283 30.33079,1.93155 12.8714,3.00905 25.10824,7.61094 36.76148,13.82482 5.83783,3.11292 10.90148,5.65986 11.25256,5.65986 0.35107,0 0.51649,-24.81919 0.3676,-55.15375 l -0.27072,-55.15412 -12.02773,-2.30486 c -41.37335,-7.92831 -92.90105,-7.02877 -132.65302,2.31579 -46.87537,11.01907 -85.30079,32.19919 -121.35717,66.89218 -20.83463,20.0468 -34.83284,38.97351 -46.1383,62.38267 -29.49164,61.06564 -28.85795,139.64032 1.62339,201.29146 33.67081,68.10211 100.58879,119.31202 174.5872,133.60526 92.63101,17.89224 182.68952,-4.47486 249.44463,-61.95253 3.73905,-3.21942 13.15206,-12.01595 20.91779,-19.54787 24.23083,-23.50129 25.71928,-24.03315 41.36634,-14.78113 11.69898,6.91754 34.05976,21.50046 48.92011,31.90398 15.86296,11.10542 18.317,16.46039 12.32026,26.88412 -7.25641,12.6133 -38.21184,44.8885 -58.57242,61.06962 -55.80642,44.35095 -126.82657,72.26975 -209.28482,82.27216 -13.5496,1.64359 -70.27188,2.93347 -83.14821,1.89081 z m 57.21097,-261.96719 c 7.49959,-1.57479 19.49687,-7.20148 27.43873,-12.86867 12.5723,-8.97141 25.9274,-25.81374 29.30311,-36.95462 l 0.71305,-2.35325 h -17.9788 -17.9788 l -6.64635,6.21734 c -12.06711,11.28818 -22.49232,15.35905 -36.99846,14.44728 -10.83113,-0.68079 -18.2455,-4.17448 -26.59683,-12.53258 -6.35772,-6.36287 -10.0577,-13.21126 -11.774,-21.79277 l -0.5466,-2.73296 27.55128,-0.69108 c 15.15321,-0.38009 41.04399,-0.69204 57.53506,-0.69321 16.49108,-10e-4 30.72825,-0.28782 31.63815,-0.63699 1.41002,-0.54107 1.65438,-3.02692 1.65438,-16.82956 v -16.19473 l -4.89234,-9.47248 c -3.68599,-7.13676 -7.1372,-11.81983 -13.99633,-18.99214 -10.30204,-10.77244 -18.32636,-16.04291 -30.79107,-20.22394 -7.77112,-2.60667 -9.63363,-2.80658 -26.14724,-2.80658 -16.49498,0 -18.3849,0.20227 -26.14724,2.79855 -20.64284,6.90442 -40.47768,25.77367 -48.12244,45.77977 -7.24507,18.96013 -7.28094,38.9621 -0.10376,57.87119 8.31625,21.91022 31.57567,42.95047 53.45569,48.35551 6.63737,1.63964 32.13716,1.83748 39.43085,0.30592 z"
       id="path855"
       transform="matrix(0.26458333,0,0,0.26458333,-2.9488972,-5.8333321)" />
    <path
       style="fill:#2a7fff;stroke-width:1.04589"
       d="m 337.1677,325.78818 c 0,-1.92852 6.24342,-10.42793 10.41668,-14.18065 6.84801,-6.15792 12.62486,-8.31063 23.68508,-8.82612 18.50963,-0.86268 30.75154,5.45247 40.65358,20.97169 l 1.83516,2.8762 h -38.29525 c -21.06239,0 -38.29525,-0.37851 -38.29525,-0.84112 z"
       id="path857"
       transform="matrix(0.26458333,0,0,0.26458333,-2.9488972,-5.8333321)" />
    <path
       style="fill:#008000;stroke-width:1.04589"
       d="M 316.24991,683.18498 C 241.71597,673.42282 179.60521,647.88783 127.94648,605.76963 113.51528,594.00364 84.399003,565.21309 73.058333,551.49552 46.062228,518.84129 22.643779,472.78111 12.437328,432.26413 0.66895922,385.54674 -0.89058994,327.6146 8.3450283,280.24862 18.205346,229.67879 40.553968,182.1637 74.337588,139.94276 85.202208,126.36474 117.4443,93.782701 130.08159,83.610999 156.22024,62.572124 198.56651,38.399268 228.96885,27.162407 259.62352,15.83228 300.24796,6.7240939 334.55297,3.4899555 349.36201,2.0938192 405.3849,2.0859213 420.3159,3.477865 c 74.73802,6.967454 149.01343,36.142482 203.94844,80.109966 20.42277,16.345456 47.69677,45.367439 59.63503,63.457029 3.08069,4.66804 4.11003,7.38844 4.47896,11.83738 l 0.47903,5.77644 -5.65782,5.4198 c -6.09913,5.84254 -61.37766,39.65383 -67.87894,41.51838 -7.3612,2.11116 -9.63522,0.76901 -26.80755,-15.82198 -20.28992,-19.60306 -35.70936,-33.35022 -37.4071,-33.35022 -2.30912,0 -2.66399,13.28111 -2.81979,105.53116 -0.0831,49.23997 -0.43614,126.30866 -0.78441,171.26375 l -0.63323,81.73653 -19.76163,-15.10561 C 516.238,497.54241 505.2989,489.54564 502.79778,488.07988 l -4.5475,-2.66501 -5.47591,4.0169 c -3.01175,2.20929 -13.48724,10.28693 -23.27884,17.9503 l -17.80294,13.93343 -0.70664,-26.8421 c -0.38864,-14.76314 -0.97946,-27.11492 -1.31293,-27.44839 -0.33348,-0.33347 -7.5459,2.73585 -16.02761,6.82071 -26.18619,12.6115 -36.8522,15.09569 -64.55996,15.03645 -20.83858,-0.0445 -29.15217,-1.22808 -44.31842,-6.30923 -21.28212,-7.13017 -39.89006,-18.91915 -57.15098,-36.20775 -27.85485,-27.89953 -40.61536,-56.00118 -42.07407,-92.65705 -1.06499,-26.76179 2.48552,-46.04061 12.25693,-66.55358 6.65542,-13.97161 14.05696,-24.58071 25.5562,-36.63134 21.34436,-22.36781 41.83524,-34.95101 70.48229,-43.28231 10.37278,-3.01668 12.64729,-3.28627 31.7038,-3.75781 12.21625,-0.30228 24.01099,-0.0394 29.12735,0.64912 11.31249,1.52243 27.35848,6.97543 41.71963,14.17781 6.38493,3.20216 12.08744,5.82211 12.67226,5.82211 0.70709,0 1.06331,-18.54528 1.06331,-55.35799 v -55.35798 l -5.49092,-1.09091 c -26.27928,-5.22099 -46.43638,-6.80737 -77.13434,-6.07054 -47.18829,1.13266 -80.59958,8.75258 -117.66256,26.83464 -38.53439,18.7999 -76.25815,51.41421 -99.27202,85.8262 -18.09033,27.04996 -30.41744,62.84873 -34.17866,99.25717 -1.53132,14.82316 -0.67709,45.65759 1.68249,60.73111 6.25191,39.93851 23.18455,78.01256 49.08085,110.36126 14.6277,18.27235 38.67911,39.99238 59.15483,53.42071 38.92366,25.52683 80.21024,38.34004 132.74824,41.19815 63.10062,3.43271 123.9793,-12.29809 174.2203,-45.01784 16.81417,-10.95033 26.97713,-19.2014 47.93711,-38.91903 10.29808,-9.68769 20.52743,-18.80758 22.7319,-20.26643 7.81834,-5.17393 11.74444,-3.73875 40.83964,14.92889 21.59795,13.85736 36.51485,24.59922 40.56335,29.2102 6.92942,7.89219 3.47537,15.69129 -16.96341,38.30269 -19.87127,21.98356 -41.86261,41.16233 -63.98811,55.80438 -48.42549,32.04667 -103.35349,52.62207 -167.62802,62.79152 -31.43626,4.97382 -91.92038,6.21179 -120.51451,2.46664 z m 78.4417,-259.36512 c 7.24449,-1.64992 21.07998,-8.74397 28.41979,-14.57204 9.2767,-7.36602 18.8992,-18.91957 23.9491,-28.75521 l 4.29592,-8.36712 -18.99445,-0.28536 -18.99445,-0.28535 -6.89555,6.31851 c -3.79254,3.47519 -9.98499,7.83944 -13.76099,9.69837 -6.53335,3.21635 -7.44831,3.37984 -18.91516,3.37984 -11.22693,0 -12.43655,-0.20361 -17.71465,-2.98199 -7.86044,-4.1377 -16.22954,-12.8357 -19.9816,-20.76684 -5.17678,-10.94276 -5.14986,-10.97908 8.65082,-11.678 6.47144,-0.32773 32.44176,-0.86928 57.71181,-1.20345 25.27004,-0.33417 46.33164,-0.84621 46.80355,-1.13785 0.4719,-0.29166 0.858,-8.0787 0.858,-17.30456 v -16.77428 l -4.21876,-8.109 c -10.59127,-20.35775 -30.36818,-36.6364 -50.18335,-41.30658 -9.03887,-2.13035 -33.7079,-2.15478 -42.66867,-0.0423 -17.26396,4.07004 -36.31596,18.18145 -46.95869,34.78129 -16.38378,25.55434 -15.60645,61.2408 1.88781,86.66784 10.06978,14.63593 30.06161,29.26552 44.73842,32.73864 5.39311,1.27622 36.35066,1.26545 41.9711,-0.0146 z"
       id="path859"
       transform="matrix(0.26458333,0,0,0.26458333,-2.9488972,-5.8333321)" />
    <path
       style="opacity:0.07;fill:#008000;stroke-width:1.04589"
       d="m 351.54867,325.8478 c -7.33429,-0.17979 -13.33509,-0.71286 -13.33509,-1.18461 0,-1.71568 6.07749,-9.18675 10.99256,-13.51316 7.01129,-6.17159 13.40313,-7.87008 27.57155,-7.32652 12.23071,0.46922 18.05464,2.58581 25.78086,9.36951 3.43295,3.01418 9.91318,11.40786 9.91318,12.8403 0,0.57908 -33.94906,0.4757 -60.92306,-0.18552 z"
       id="path856"
       transform="matrix(0.26458333,0,0,0.26458333,-2.9488972,-5.8333321)" />
    <path
       style="opacity:0.07;fill:#008000;stroke-width:1.04589"
       d="m 364.70736,325.62914 c -13.90276,-0.31277 -25.53751,-0.82938 -25.855,-1.14802 -0.96739,-0.97089 7.64487,-10.68337 13.13289,-14.81062 6.19952,-4.66233 9.93557,-5.56708 22.31152,-5.40313 11.65515,0.1544 17.32917,1.60983 24.06884,6.17386 4.65235,3.15053 13.98364,13.61494 12.93801,14.5091 -1.01368,0.86684 -23.60763,1.19599 -46.59626,0.67881 z"
       id="path858"
       transform="matrix(0.26458333,0,0,0.26458333,-2.9488972,-5.8333321)" />
    <path
       style="opacity:0.07;fill:#008000;stroke-width:1.04589"
       d="m 347.88806,324.80528 c -4.74572,-0.1938 -8.62859,-0.79997 -8.62859,-1.34705 0,-1.6766 12.84587,-14.17807 16.73423,-16.28559 3.0858,-1.67252 5.87778,-1.98132 17.78012,-1.96654 15.78311,0.0196 19.54944,1.15426 28.08615,8.46137 6.22128,5.32519 9.2171,9.78672 7.36084,10.96217 -1.35429,0.8576 -41.79681,0.97341 -61.33275,0.17564 z"
       id="path860"
       transform="matrix(0.26458333,0,0,0.26458333,-2.9488972,-5.8333321)" />
    <path
       style="opacity:0.07;fill:#008000;stroke-width:1.04589"
       d="m 339.78242,684.20343 c -25.8501,-0.99362 -47.60241,-4.45249 -78.66438,-12.50855 C 192.47821,653.89283 138.04934,620.75049 86.640511,565.45359 67.635017,545.0107 56.637586,529.94881 43.238399,506.01078 18.154493,461.19768 6.7240592,420.719 3.4905248,365.25135 0.88635175,320.57967 7.3546547,274.13285 21.759441,234.06808 31.631423,206.61063 50.7959,171.77489 69.803993,146.73632 83.078146,129.25083 118.71689,93.088258 135.07613,80.504819 160.23307,61.154224 201.76494,37.965962 230.07955,27.46207 254.84603,18.274434 292.24334,9.3622577 322.1356,5.5241316 345.62954,2.5075423 409.17831,2.4976613 432.5651,5.5069613 511.84889,15.708821 585.56697,48.54818 639.42974,97.659418 c 15.88702,14.485552 41.29485,43.917272 45.97869,53.260462 1.00931,2.01333 2.12259,5.85471 2.47396,8.53638 0.61578,4.69964 0.48362,5.01601 -3.65871,8.75835 -5.08472,4.59374 -21.48042,15.38105 -43.22511,28.4393 -26.45326,15.88588 -29.20937,16.87895 -35.75987,12.88485 -1.83551,-1.1192 -11.74166,-9.94212 -22.01365,-19.60652 -22.755,-21.40904 -29.82438,-27.50758 -31.88654,-27.50758 -1.05535,0 -1.80425,1.47572 -2.25577,4.44503 -0.37176,2.44477 -1.10688,82.50094 -1.63362,177.9026 -0.52674,95.40167 -1.16259,173.66245 -1.41299,173.91284 -0.2504,0.25041 -9.10791,-6.07297 -19.68333,-14.05195 -10.57544,-7.97899 -21.23461,-15.76975 -23.68705,-17.31283 l -4.45896,-2.80558 -18.5506,14.30934 c -10.20283,7.87014 -20.47837,15.87835 -22.83453,17.79602 l -4.28393,3.48667 -0.6798,-13.32907 c -0.37389,-7.33099 -0.6869,-17.56492 -0.69556,-22.74208 -0.0183,-10.9433 -0.87934,-17.25717 -2.35336,-17.25717 -0.57259,0 -8.15907,3.23425 -16.85886,7.18725 -27.65715,12.56676 -34.73458,14.13698 -63.40577,14.06735 -27.41075,-0.0666 -38.8957,-2.60511 -61.18453,-13.52378 -26.76449,-13.11119 -54.5003,-40.59447 -67.96532,-67.34652 -9.34171,-18.55994 -13.08031,-36.22378 -13.08691,-61.83194 -0.006,-23.82155 3.20142,-39.11468 12.20528,-58.19313 8.9235,-18.90815 29.04591,-42.47563 48.40983,-56.69787 11.0248,-8.09741 30.59033,-17.71752 45.01552,-22.13355 10.80955,-3.30915 11.37624,-3.36872 36.12104,-3.79631 22.8759,-0.39529 25.97806,-0.23518 34.45657,1.77848 10.37088,2.46307 24.11777,7.68298 36.34136,13.79941 4.44534,2.22434 8.80298,4.04426 9.68365,4.04426 1.42103,0 1.57076,-6.26701 1.33057,-55.69361 l -0.27063,-55.69361 -12.5456,-2.26985 c -18.88355,-3.41658 -33.29512,-4.5288 -58.63026,-4.52486 -35.52676,0.006 -61.12184,3.01554 -85.70755,10.07929 -41.34798,11.87972 -77.56135,32.9788 -109.18314,63.61362 -32.83322,31.80842 -50.72061,61.99716 -61.21492,103.31307 -5.24151,20.63571 -6.88296,34.25538 -6.86207,56.93697 0.0292,31.65269 2.74293,50.15928 11.09132,75.63675 11.73625,35.81653 33.7121,70.54986 61.17507,96.68858 33.97076,32.33271 69.86437,52.59146 112.11909,63.28126 71.16804,18.00442 147.64338,9.6798 210.60951,-22.92562 26.09044,-13.51028 41.92579,-25.16886 72.49945,-53.37681 10.06668,-9.28775 20.27225,-18.05479 22.67903,-19.48229 3.83328,-2.27358 4.87093,-2.46192 8.36712,-1.51856 10.47343,2.82598 63.45582,37.41641 70.94656,46.31865 3.85142,4.57716 3.28987,10.97189 -1.59624,18.17734 -9.71622,14.32831 -36.55504,41.83957 -56.35093,57.7628 -48.47215,38.98957 -113.29092,66.71574 -183.67178,78.56547 -18.35215,3.08987 -30.98322,4.22034 -53.8633,4.8207 -11.21717,0.29432 -22.7481,0.659 -25.62429,0.81038 -2.8762,0.15139 -13.70116,-0.0504 -24.05546,-0.44837 z m 60.47433,-261.8222 c 19.62112,-6.92425 36.75633,-22.25747 47.84329,-42.81196 l 4.2485,-7.87645 -19.66271,-0.30661 -19.66272,-0.30661 -6.8125,6.06302 c -3.74687,3.33466 -10.05262,7.68817 -14.01277,9.67448 -6.86332,3.44245 -7.72249,3.61145 -18.35918,3.61145 -10.00828,0 -11.73934,-0.28924 -16.78795,-2.80506 -7.16313,-3.56954 -16.49436,-13.01646 -20.05599,-20.30463 -3.96999,-8.12381 -4.04431,-9.48994 -0.56829,-10.44486 1.60565,-0.44108 17.84308,-1.08208 36.08319,-1.42443 18.24011,-0.34235 43.16515,-0.9006 55.38898,-1.24058 l 22.22515,-0.61812 v -17.69911 c 0,-17.0508 -0.10103,-17.89898 -2.7595,-23.15526 -4.55146,-8.99921 -10.18949,-16.56851 -17.77703,-23.86643 -8.47233,-8.14894 -15.9595,-13.10512 -26.00555,-17.21456 -6.91577,-2.82898 -8.34258,-3.01697 -25.76399,-3.39485 -11.42817,-0.24788 -20.64178,0.0565 -24.2244,0.80023 -13.99654,2.90567 -32.29901,15.00422 -42.9815,28.41223 -11.30548,14.18994 -16.32555,29.10517 -16.32555,48.50513 0,14.27415 2.34647,24.50481 8.5158,37.12908 3.5428,7.2496 6.10111,10.6408 13.86415,18.37779 10.01799,9.98436 21.6205,17.95314 31.11008,21.36684 4.78153,1.72007 8.51534,2.01777 25.47462,2.03115 18.34166,0.0144 20.42125,-0.17819 27.00587,-2.50188 z"
       id="path862"
       transform="matrix(0.26458333,0,0,0.26458333,-2.9488972,-5.8333321)" />
  </g>
</svg>
