<?xml version="1.0" encoding="UTF-8" standalone="no"?>
<svg
   xmlns:dc="http://purl.org/dc/elements/1.1/"
   xmlns:cc="http://creativecommons.org/ns#"
   xmlns:rdf="http://www.w3.org/1999/02/22-rdf-syntax-ns#"
   xmlns:svg="http://www.w3.org/2000/svg"
   xmlns="http://www.w3.org/2000/svg"
   xmlns:sodipodi="http://sodipodi.sourceforge.net/DTD/sodipodi-0.dtd"
   xmlns:inkscape="http://www.inkscape.org/namespaces/inkscape"
   width="182.82857mm"
   height="181.95015mm"
   viewBox="0 0 182.82858 181.95016"
   version="1.1"
   id="svg8"
   sodipodi:docname="logo-codever-dark-red.svg"
   inkscape:version="1.0.2 (e86c8708, 2021-01-15)">
  <defs
     id="defs2" />
  <sodipodi:namedview
     id="base"
     pagecolor="#ffffff"
     bordercolor="#666666"
     borderopacity="1.0"
     inkscape:pageopacity="0.0"
     inkscape:pageshadow="2"
     inkscape:zoom="0.47806201"
     inkscape:cx="451.85786"
     inkscape:cy="437.19098"
     inkscape:document-units="mm"
     inkscape:current-layer="layer1"
     inkscape:document-rotation="0"
     showgrid="false"
     inkscape:window-width="1440"
     inkscape:window-height="786"
     inkscape:window-x="0"
     inkscape:window-y="23"
     inkscape:window-maximized="0"
     inkscape:snap-text-baseline="true"
     inkscape:snap-center="false" />
  <metadata
     id="metadata5">
    <rdf:RDF>
      <cc:Work
         rdf:about="">
        <dc:format>image/svg+xml</dc:format>
        <dc:type
           rdf:resource="http://purl.org/dc/dcmitype/StillImage" />
        <dc:title></dc:title>
      </cc:Work>
    </rdf:RDF>
  </metadata>
  <g
     inkscape:groupmode="layer"
     id="layer4"
     inkscape:label="c-letter"
     style="display:inline"
     transform="translate(2.9488972,5.8333321)">
    <path
       id="text391"
       style="font-style:normal;font-variant:normal;font-weight:normal;font-stretch:normal;font-size:225.50700000000000500px;line-height:1.25;font-family:'Heiti SC';-inkscape-font-specification:'Heiti SC, Normal';font-variant-ligatures:normal;font-variant-caps:normal;font-variant-numeric:normal;font-variant-east-asian:normal;fill:#f9f9f9;stroke-width:1.17452"
       sodipodi:type="inkscape:offset"
       inkscape:radius="3.5554283"
       inkscape:original="M 68.289062 0.61523438 C 48.446858 0.61523438 32.578595 6.848009 20.197266 19.375 A 2.1358711 2.1358711 0 0 1 20.1875 19.382812 C 7.7641621 31.806151 1.6445313 46.567197 1.6445312 64.103516 C 1.6445313 81.645695 7.6926664 96.244895 19.955078 108.36133 C 32.354742 120.46491 47.565994 126.46289 66.035156 126.46289 C 77.922544 126.46289 88.859612 124.05126 98.939453 119.23047 A 2.1358711 2.1358711 0 0 1 98.951172 119.22461 C 108.49049 114.72751 116.1814 108.28557 122.26562 99.982422 L 111.25 92.410156 C 99.416161 106.22106 84.724339 113.36914 67.613281 113.36914 C 52.859071 113.36913 40.390943 108.38534 30.6875 98.525391 C 21.017837 88.699765 16.091797 76.706017 16.091797 62.974609 C 16.091797 49.236686 21.116859 37.503027 30.972656 28.271484 C 30.973715 28.270492 30.97355 28.26857 30.974609 28.267578 C 40.823748 18.893781 53.178988 14.160156 67.613281 14.160156 C 85.26807 14.160156 99.936327 21.23261 111.10742 34.927734 L 122.3125 27.859375 C 116.9022 19.583334 109.70911 13.030568 100.46289 8.2714844 A 2.1358711 2.1358711 0 0 1 100.45117 8.265625 C 90.687787 3.1653467 80.004673 0.61523438 68.289062 0.61523438 z "
       d="m 68.289062,-2.9394531 c -20.583651,0 -37.581495,6.6246994 -50.615234,19.8085941 -0.001,0.001 -9.46e-4,0.0029 -0.002,0.0039 -9.96e-4,0.001 -0.0029,9.45e-4 -0.0039,0.002 a 3.5557838,3.5557838 0 0 0 -0.146485,0.160156 C 4.6223711,30.011047 -1.9101561,45.816267 -1.9101562,64.103516 c 1e-7,18.359398 6.5048518,34.077892 19.3671872,46.787104 a 3.5557838,3.5557838 0 0 0 0.01367,0.0156 c 13.019598,12.70871 29.325526,19.11133 48.564453,19.11133 12.252807,0 23.649517,-2.49737 34.134764,-7.45703 a 3.5557838,3.5557838 0 0 0 0.29688,-0.11914 c 0.002,-0.001 0.004,-0.003 0.006,-0.004 10.05423,-4.74113 18.25119,-11.60719 24.66015,-20.35352 a 3.5557838,3.5557838 0 0 0 -0.85351,-5.031246 l -11.01563,-7.572265 a 3.5557838,3.5557838 0 0 0 -4.71289,0.617187 C 97.268597,103.26474 83.734161,109.81445 67.613281,109.81445 53.659723,109.81444 42.27627,105.23287 33.220703,96.03125 24.142202,86.806321 19.646484,75.855695 19.646484,62.974609 c 0,-12.870919 4.557053,-23.491256 13.75586,-32.107421 10e-7,-10e-7 0.0019,-0.0039 0.002,-0.0039 -10e-7,1e-6 0.0019,-0.0019 0.002,-0.002 a 3.5557838,3.5557838 0 0 0 0.01953,-0.01758 c 9.206524,-8.762196 20.530526,-13.128906 34.1875,-13.128906 16.70526,0 30.151783,6.482493 40.738279,19.460937 a 3.5557838,3.5557838 0 0 0 4.65235,0.759766 l 11.20507,-7.068359 a 3.5557838,3.5557838 0 0 0 1.08008,-4.953126 C 119.61772,17.238713 111.99208,10.289769 102.37305,5.2773438 a 3.5557838,3.5557838 0 0 0 -0.25391,-0.1503907 3.5557838,3.5557838 0 0 0 -0.0215,-0.011719 c -0.003,-0.00151 -0.005,-0.00435 -0.008,-0.00586 l -0.002,0.00195 C 91.814681,-0.2533237 80.516893,-2.9394531 68.289062,-2.9394531 Z m 30.5625,14.3808591 a 3.5557838,3.5557838 0 0 0 0.03125,0.01367 v 0.002 c -2.660753,-1.320054 2.621358,1.320728 -0.03125,-0.01563 z M 22.425781,22.144531 c -2.314099,1.862226 2.299573,-1.827159 -0.02539,0.02148 v -0.002 a 3.5557838,3.5557838 0 0 0 0.02539,-0.01953 z"
       transform="matrix(1.4308241,0,0,1.3684883,-0.21579972,-1.8107249)" />
  </g>
  <g
     inkscape:groupmode="layer"
     id="layer5"
     inkscape:label="o-letter"
     style="display:inline"
     transform="translate(2.9488972,5.8333321)">
    <g
       aria-label="o"
       transform="matrix(1.4056435,0,0,1.3112684,1.3377346,0.30168749)"
       id="text395"
       style="font-style:normal;font-variant:normal;font-weight:300;font-stretch:normal;font-size:157.46700000000001296px;line-height:1.25;font-family:'Heiti SC';-inkscape-font-specification:'Heiti SC, Light';font-variant-ligatures:normal;font-variant-caps:normal;font-variant-numeric:normal;font-variant-east-asian:normal;fill:none;stroke-width:0.984173">
      <path
         id="path509"
         style="font-style:normal;font-variant:normal;font-weight:300;font-stretch:normal;font-size:157.46700000000001296px;font-family:'Heiti SC';-inkscape-font-specification:'Heiti SC, Light';font-variant-ligatures:normal;font-variant-caps:normal;font-variant-numeric:normal;font-variant-east-asian:normal;fill:none;stroke-width:0.984173"
         sodipodi:type="inkscape:offset"
         inkscape:radius="4.1392293"
         inkscape:original="M 66.125 20.367188 C 54.05253 20.367187 43.764936 24.724326 35.261719 33.4375 C 26.863479 42.150674 22.664062 52.649215 22.664062 64.931641 C 22.664062 77.004111 26.863479 87.396202 35.261719 96.109375 C 43.659958 104.71757 54.000777 109.02148 66.283203 109.02148 C 78.565628 109.02148 88.853222 104.71757 97.146484 96.109375 C 105.54473 87.396202 109.74414 76.950885 109.74414 64.773438 C 109.74414 52.59599 105.4915 42.150674 96.988281 33.4375 C 88.590041 24.724326 78.302447 20.367188 66.125 20.367188 z M 66.125 30.917969 C 75.048129 30.917969 82.711576 34.330727 89.115234 41.154297 C 95.62387 47.872889 98.878906 55.849827 98.878906 65.087891 C 98.878906 74.430933 95.677096 82.409824 89.273438 89.023438 C 82.974758 95.532073 75.20486 98.787109 65.966797 98.787109 C 56.833711 98.787109 49.170264 95.532074 42.976562 89.023438 C 36.782861 82.514802 33.6875 74.589136 33.6875 65.246094 C 33.6875 55.903052 36.889311 47.872889 43.292969 41.154297 C 49.696626 34.330727 57.306848 30.917969 66.125 30.917969 z "
         d="m 66.125,16.228516 c -13.068411,-10e-7 -24.639171,4.904517 -33.826172,14.318359 a 4.1396432,4.1396432 0 0 0 -0.01758,0.01758 c -9.0727,9.412926 -13.755859,21.141281 -13.755859,34.367188 0,13.032359 4.694849,24.649984 13.755859,34.050781 A 4.1396432,4.1396432 0 0 0 32.298828,99 c 9.102666,9.33023 20.734992,14.16016 33.984375,14.16016 13.249382,0 24.842116,-4.83622 33.843747,-14.179691 9.06616,-9.406668 13.75586,-21.078495 13.75586,-34.207031 0,-13.137787 -4.75405,-24.817105 -13.925779,-34.21875 C 90.866793,21.129235 79.284556,16.228516 66.125,16.228516 Z m 0,18.828125 c 7.86773,0 14.225376,2.805536 19.972656,8.929687 a 4.1396432,4.1396432 0 0 0 0.04492,0.04883 c 5.84926,6.037946 8.597656,12.786977 8.597656,21.052735 0,8.397381 -2.715409,15.142906 -8.441406,21.05664 -5.595296,5.781805 -12.066274,8.503907 -20.332031,8.503907 -8.149604,0 -14.498795,-2.705798 -19.992188,-8.478516 -5.51166,-5.791915 -8.148437,-12.495007 -8.148437,-20.923828 0,-8.397381 2.720274,-15.211288 8.46289,-21.236328 a 4.1396432,4.1396432 0 0 0 0.02148,-0.02344 C 52.065658,37.853832 58.374811,35.056641 66.125,35.056641 Z" />
    </g>
  </g>
  <g
     inkscape:groupmode="layer"
     id="layer6"
     inkscape:label="d-letter"
     style="display:inline"
     transform="translate(2.9488972,5.8333321)">
    <path
       id="text399"
       style="font-style:normal;font-variant:normal;font-weight:normal;font-stretch:normal;font-size:101.712px;line-height:1.25;font-family:'Heiti SC';-inkscape-font-specification:'Heiti SC, Normal';font-variant-ligatures:normal;font-variant-caps:normal;font-variant-numeric:normal;font-variant-east-asian:normal;fill:#f9f9f9;stroke-width:1.0595"
       sodipodi:type="inkscape:offset"
       inkscape:radius="3.6589744"
       inkscape:original="M 86.568359 17.076172 L 86.568359 46.369141 C 81.075911 39.791765 74.260007 36.501953 66.123047 36.501953 C 58.053895 36.501953 51.206189 39.384758 45.578125 45.148438 C 39.950061 50.844309 37.134766 57.72577 37.134766 65.794922 C 37.134766 73.864074 39.916307 80.781242 45.476562 86.544922 C 51.036818 92.308602 57.749507 95.189453 65.615234 95.189453 C 73.54877 95.189453 80.533447 91.86784 86.568359 85.222656 L 86.568359 93.359375 L 94.806641 93.359375 L 94.806641 17.076172 L 86.568359 17.076172 z M 66.326172 44.638672 C 72.293276 44.638672 77.211116 46.707462 81.076172 50.84375 C 85.009036 54.91223 86.974609 60.032597 86.974609 66.203125 C 86.974609 72.305845 84.872065 77.35675 80.667969 81.357422 C 76.463873 85.358094 71.683004 87.359375 66.326172 87.359375 C 60.6303 87.359375 55.748167 85.223076 51.679688 80.951172 C 47.611208 76.679268 45.578125 71.693919 45.578125 65.998047 C 45.578125 60.234367 47.543699 55.250971 51.476562 51.046875 C 55.477234 46.774971 60.426876 44.638672 66.326172 44.638672 z "
       d="m 86.568359,13.417969 a 3.6593403,3.6593403 0 0 0 -3.658203,3.658203 V 38.234375 C 77.980758,34.790797 72.32725,32.84375 66.123047,32.84375 c -8.939177,0 -16.920194,3.359334 -23.158203,9.746094 -0.001,0.001 -0.0029,9.16e-4 -0.0039,0.002 -6.225178,6.307647 -9.484376,14.290022 -9.484376,23.203125 0,8.910016 3.214661,16.913395 9.367188,23.291016 6.158924,6.38425 14.012349,9.761718 22.771484,9.761718 6.263976,0 12.087651,-2.027785 17.294922,-5.660156 v 0.171875 a 3.6593403,3.6593403 0 0 0 3.658203,3.658203 h 8.238282 a 3.6593403,3.6593403 0 0 0 3.658203,-3.658203 V 17.076172 A 3.6593403,3.6593403 0 0 0 94.806641,13.417969 Z M 66.326172,48.296875 c 5.121395,0 8.852687,1.595227 12.076172,5.044922 a 3.6593403,3.6593403 0 0 0 0.04297,0.04492 c 3.290038,3.403487 4.871094,7.422903 4.871094,12.816406 0,5.262313 -1.638605,9.14346 -5.169922,12.503906 -3.64201,3.465785 -7.374794,4.994141 -11.820312,4.994141 -4.78098,0 -8.515638,-1.618958 -11.996094,-5.273438 -3.507858,-3.683251 -5.09375,-7.604504 -5.09375,-12.429687 0,-4.930847 1.548627,-8.854976 4.910156,-12.449219 l 0.002,-0.002 c 3.386939,-3.615624 7.162764,-5.25 12.177734,-5.25 z"
       transform="matrix(1.2187819,0,0,1.1678369,15.201135,8.8535574)" />
  </g>
  <g
     inkscape:groupmode="layer"
     id="layer7"
     inkscape:label="e-letter"
     style="display:inline"
     transform="translate(2.9488972,5.8333321)">
    <path
       id="text403"
       style="font-style:normal;font-variant:normal;font-weight:normal;font-stretch:normal;font-size:52.91669999999999874px;line-height:1.25;font-family:'Heiti SC';-inkscape-font-specification:'Heiti SC, Normal';font-variant-ligatures:normal;font-variant-caps:normal;font-variant-numeric:normal;font-variant-east-asian:normal;fill:none;stroke-width:1.28323"
       sodipodi:type="inkscape:offset"
       inkscape:radius="0.7683714"
       inkscape:original="M 67.416016 48.744141 C 63.217958 48.744141 59.689533 50.243575 56.832031 53.242188 C 54.009807 56.2408 52.599609 59.839051 52.599609 64.037109 C 52.599609 68.235167 54.009807 71.835371 56.832031 74.833984 C 59.654255 77.797319 63.235049 79.277344 67.574219 79.277344 C 70.713943 79.277344 73.412143 78.555765 75.669922 77.109375 C 77.927701 75.627707 79.886865 73.350419 81.544922 70.28125 L 77.839844 68.376953 C 75.405676 72.927789 71.879204 75.203125 67.257812 75.203125 C 64.541422 75.203125 62.194307 74.250704 60.21875 72.345703 C 58.278471 70.405424 57.221311 67.84883 57.044922 64.673828 L 82.337891 64.673828 C 82.232057 59.734936 80.767536 55.853474 77.945312 53.03125 C 75.123089 50.173748 71.614074 48.744141 67.416016 48.744141 z M 67.416016 52.978516 C 69.850184 52.978516 72.00137 53.667135 73.871094 55.042969 C 75.740817 56.418803 76.941536 58.341101 77.470703 60.810547 L 57.574219 60.810547 C 59.196998 55.589433 62.477124 52.978516 67.416016 52.978516 z "
       d="m 67.416016,47.976562 c -4.38102,0 -8.15345,1.601638 -11.140625,4.736329 a 0.76844824,0.76844824 0 0 0 -0.002,0.002 c -2.944928,3.128984 -4.441407,6.952135 -4.441407,11.322265 0,4.370131 1.496365,8.195113 4.441407,11.324219 a 0.76844824,0.76844824 0 0 0 0.002,0.002 c 2.957956,3.105854 6.784938,4.681641 11.298828,4.681641 3.25745,0 6.115592,-0.755295 8.509765,-2.289063 a 0.76844824,0.76844824 0 0 0 0.0078,-0.0039 c 2.389248,-1.567944 4.426089,-3.953446 6.128906,-7.105469 a 0.76844824,0.76844824 0 0 0 -0.324219,-1.048828 l -3.705078,-1.904297 a 0.76844824,0.76844824 0 0 0 -1.029297,0.320313 c -2.338835,4.372606 -5.535109,6.421875 -9.904297,6.421875 -2.5343,0 -4.652507,-0.859481 -6.5,-2.638672 -1.616919,-1.619213 -2.473776,-3.755689 -2.771484,-6.355469 h 24.351563 a 0.76844824,0.76844824 0 0 0 0.767578,-0.783203 C 82.996614,59.578367 81.46694,55.469198 78.492188,52.492188 l -0.002,-0.002 c -2.955639,-2.99157 -6.702697,-4.513671 -11.074218,-4.513672 z m 0,5.769532 c 2.289254,0 4.258301,0.634389 6,1.916015 1.458959,1.073574 2.365476,2.566811 2.939453,4.38086 H 58.751953 c 0.755088,-1.940685 1.714529,-3.499929 2.978516,-4.50586 1.493248,-1.188386 3.351499,-1.791015 5.685547,-1.791015 z"
       transform="matrix(1.2419226,0,0,1.2050728,12.312798,8.8257041)" />
    <path
       style="fill:#0000ff;stroke-width:1.04589"
       d="m 360.86548,391.3027 c -7.44893,-2.3936 -13.0605,-6.00743 -18.49024,-11.90767 -5.40628,-5.87475 -8.27525,-11.38734 -10.18342,-19.56694 l -1.47162,-6.30826 h 46.80806 c 25.74444,0 52.52976,-0.30766 59.52294,-0.68368 l 12.71488,-0.68367 v 10.09668 10.09668 h -17.76075 -17.76075 l -6.63675,6.63674 c -3.85398,3.85399 -9.01492,7.75057 -12.30857,9.29316 -11.10536,5.20123 -24.10979,6.3444 -34.43378,3.02696 z"
       id="path48"
       transform="matrix(0.26458333,0,0,0.26458333,-2.9488972,-5.8333321)" />
  </g>
  <g
     inkscape:groupmode="layer"
     id="layer3"
     inkscape:label="bookmark"
     style="display:inline"
     transform="translate(2.9488972,5.8333321)">
    <path
       fill="currentColor"
       d="M 115.88127,133.21167 V 14.910126 c 0,-6.7590005 1.4854,-12.2380898 3.31778,-12.2380898 h 19.90679 c 1.83237,0 3.31777,5.4790893 3.31777,12.2380898 V 133.21167 l -13.27118,-10.31888 z"
       id="path405"
       style="fill:#f9f9f9;stroke-width:0.132752"
       sodipodi:nodetypes="cssssccc" />
    <path
       style="fill:#f9f9f9;stroke-width:0.941358"
       d="m 315.83309,301.13707 c 0.017,-2.26384 5.82969,-11.30088 9.86318,-15.33437 18.51257,-18.51258 55.91128,-12.57863 67.73112,10.7467 1.32676,2.61823 2.41229,4.98631 2.41229,5.26239 0,0.27609 -18.00347,0.50197 -40.00771,0.50197 -31.38331,0 -40.00581,-0.25366 -39.99888,-1.17669 z"
       id="path243"
       transform="matrix(0.26458333,0,0,0.26458333,2.1372352,0.9914564)" />
    <path
       style="fill:#0000ff;stroke-width:1.04589"
       d="M 330.53469,685.99239 C 236.69969,678.51503 155.08801,640.79385 92.374218,575.91386 39.821999,521.54644 10.653829,459.39175 1.9967091,383.32768 0.31162272,368.522 0.27988239,326.0121 1.9428254,311.1613 9.3642014,244.88526 31.829006,190.182 72.547738,139.23375 84.54523,124.22221 112.01659,96.200837 126.20357,84.503658 179.53529,40.53161 243.35578,13.683289 316.93812,4.2645034 400.51523,-6.4336457 482.58299,4.8055603 550.24948,36.216573 c 43.74351,20.305882 77.32513,44.031206 107.17723,75.720437 13.09565,13.90158 27.22441,31.76806 31.16748,39.41275 1.9842,3.84689 2.27519,11.93618 0.54988,15.28609 -2.5103,4.87403 -6.64938,7.76335 -38.79455,27.08079 -32.28681,19.40255 -33.35965,19.95282 -38.90103,19.95282 -7.77736,0 -11.70761,-2.62783 -23.50778,-15.71784 -11.19845,-12.4225 -35.71628,-34.78367 -38.13843,-34.78367 -0.37219,0 -0.6767,81.42091 -0.6767,180.93537 v 180.93537 l -21.17926,-16.50046 c -11.6486,-9.07525 -22.88373,-17.79044 -24.96696,-19.36709 l -3.7877,-2.86662 -24.21008,18.84764 c -13.31555,10.3662 -24.4363,18.84764 -24.71279,18.84764 -0.27649,0 -0.50271,-12.47223 -0.50271,-27.71607 0,-18.39957 -0.36376,-27.71607 -1.08217,-27.71607 -0.59519,0 -4.88058,2.1553 -9.52308,4.78955 -29.08308,16.50235 -64.24908,21.93751 -98.20439,15.17821 -50.25311,-10.00361 -92.76276,-46.65821 -109.65505,-94.55179 -5.7106,-16.19085 -7.73626,-28.46694 -7.79869,-47.26208 -0.0828,-24.93055 3.60474,-41.58795 13.89205,-62.75337 15.28877,-31.4556 44.83733,-58.91983 77.56798,-72.0964 41.6186,-16.75466 90.05508,-14.15071 125.84825,6.76562 3.9024,2.28043 7.51374,4.14625 8.02519,4.14625 0.53057,0 0.92991,-23.11352 0.92991,-53.823 v -53.82299 l -3.95425,-1.06476 c -18.59634,-5.00748 -50.61837,-7.8575 -79.19396,-7.04842 -75.85244,2.14767 -135.56996,27.0905 -185.95346,77.66908 -35.62841,35.76636 -54.50794,73.11346 -62.08087,122.80713 -2.22335,14.58971 -2.5158,48.94527 -0.54308,63.79926 7.1292,53.68071 29.94839,98.97606 69.8188,138.58806 40.56271,40.29981 88.08918,63.10331 148.42782,71.21662 18.86883,2.53715 59.77652,2.56732 77.91876,0.0574 34.89354,-4.8273 59.53846,-12.20035 88.77544,-26.55907 29.71151,-14.59176 55.99005,-34.00763 83.36508,-61.5942 23.25108,-23.43075 23.00873,-23.41686 54.07744,-3.10083 45.897,30.01234 45.62476,29.81806 47.82354,34.12802 3.02413,5.92779 2.70619,12.15289 -0.91211,17.85835 -7.12486,11.23475 -31.60028,37.30893 -49.832,53.08709 -59.16426,51.20215 -143.51596,84.07756 -233.70387,91.08424 -16.15973,1.25545 -57.10407,1.21449 -73.26467,-0.0733 z m 62.23042,-263.02872 c 14.82139,-3.55471 33.63694,-15.66507 43.88552,-28.24627 4.57704,-5.6188 12.06956,-18.8411 12.06956,-21.29957 0,-0.68778 -6.048,-1.07199 -16.8742,-1.07199 h -16.87421 l -7.4704,7.09615 c -11.39165,10.82095 -21.42073,14.5208 -36.92772,13.62312 -9.10735,-0.52722 -18.69889,-4.22046 -25.16764,-9.69085 -6.61804,-5.59665 -12.01826,-15.574 -14.31886,-26.45529 l -0.71868,-3.39914 44.27193,-0.13143 c 24.34957,-0.0723 51.09636,-0.42527 59.43733,-0.78442 l 15.1654,-0.65299 v -15.7697 -15.76969 l -4.6247,-9.33166 c -3.87814,-7.82527 -6.32624,-11.0395 -15.16539,-19.91149 -8.85288,-8.88576 -11.96423,-11.27174 -19.43077,-14.90073 -11.17635,-5.43206 -20.99775,-7.46989 -35.89009,-7.44678 -14.6506,0.0227 -23.72708,1.91767 -34.5732,7.21793 -30.69698,15.00097 -48.45749,48.3285 -43.58925,81.7951 2.90987,20.00393 14.08042,38.29283 31.64252,51.80657 18.31361,14.092 41.86587,18.9082 65.15285,13.32313 z"
       id="path28"
       transform="matrix(0.26458333,0,0,0.26458333,-2.9488972,-5.8333321)" />
    <path
       style="fill:#0000ff;stroke-width:1.04589"
       d="m 335.76413,325.96114 c 0,-1.26119 2.84477,-5.85927 7.32123,-11.83347 0.86286,-1.15156 3.75419,-3.75384 6.42518,-5.78284 13.43493,-10.20575 37.74677,-9.25444 52.66757,2.06086 4.47261,3.39184 12.02773,13.52767 12.02773,16.13622 0,0.45687 -17.64938,0.83068 -39.22085,0.83068 -32.22199,0 -39.22086,-0.25187 -39.22086,-1.41145 z"
       id="path30"
       transform="matrix(0.26458333,0,0,0.26458333,-2.9488972,-5.8333321)" />
    <path
       style="fill:#0000ff;stroke-width:1.04589"
       d="m 357.92255,390.41593 c -7.94911,-3.14869 -17.35885,-11.44388 -21.39629,-18.862 -1.53916,-2.82793 -3.47517,-8.04249 -4.30226,-11.5879 l -1.5038,-6.4462 50.89435,-0.10426 c 27.9919,-0.0573 51.96428,-0.41033 53.27197,-0.78441 1.30768,-0.37409 5.19055,-0.5207 8.62858,-0.3258 l 6.25098,0.35437 v 9.84305 9.84306 h -18.18091 -18.18091 l -3.5213,4.63585 c -1.93671,2.54972 -4.58025,5.12821 -5.87454,5.72997 -1.29429,0.60176 -2.35325,1.57486 -2.35325,2.16243 0,0.58757 -0.66676,1.06831 -1.48168,1.06831 -0.81492,0 -1.63856,0.4011 -1.83031,0.89133 -0.19174,0.49024 -3.40785,1.98916 -7.14691,3.33095 -10.20391,3.66175 -24.39315,3.76889 -33.27372,0.25125 z"
       id="path32"
       transform="matrix(0.26458333,0,0,0.26458333,-2.9488972,-5.8333321)" />
    <path
       style="fill:#0000ff;stroke-width:1.04589"
       d="M 357.92255,390.35049 C 345.46824,385.54067 335.41812,373.658 332.224,359.96603 l -1.5038,-6.4462 h 46.80806 c 25.74444,0 52.52976,-0.30766 59.52294,-0.68368 l 12.71488,-0.68367 v 10.09668 10.09668 h -17.76075 -17.76075 l -6.63675,6.63674 c -3.83943,3.83943 -9.02736,7.75964 -12.30857,9.30085 -12.0371,5.65393 -26.07833,6.43046 -37.37671,2.06706 z"
       id="path34"
       transform="matrix(0.26458333,0,0,0.26458333,-2.9488972,-5.8333321)" />
    <path
       style="fill:#0000ff;stroke-width:1.04589"
       d="m 360.86548,391.3027 c -7.44893,-2.3936 -13.0605,-6.00743 -18.49024,-11.90767 -5.40628,-5.87475 -8.27525,-11.38734 -10.18342,-19.56694 l -1.47162,-6.30826 h 46.80806 c 25.74444,0 52.52976,-0.30766 59.52294,-0.68368 l 12.71488,-0.68367 v 10.09668 10.09668 h -17.76075 -17.76075 l -6.63675,6.63674 c -3.85398,3.85399 -9.01492,7.75057 -12.30857,9.29316 -11.10536,5.20123 -24.10979,6.3444 -34.43378,3.02696 z"
       id="path36"
       transform="matrix(0.26458333,0,0,0.26458333,-2.9488972,-5.8333321)" />
    <path
       style="fill:#0000ff;stroke-width:1.04589"
       d="m 360.86548,391.3027 c -7.44893,-2.3936 -13.0605,-6.00743 -18.49024,-11.90767 -5.40628,-5.87475 -8.27525,-11.38734 -10.18342,-19.56694 l -1.47162,-6.30826 h 46.80806 c 25.74444,0 52.52976,-0.30766 59.52294,-0.68368 l 12.71488,-0.68367 v 10.09668 10.09668 h -17.76075 -17.76075 l -6.63675,6.63674 c -3.85398,3.85399 -9.01492,7.75057 -12.30857,9.29316 -11.10536,5.20123 -24.10979,6.3444 -34.43378,3.02696 z"
       id="path38"
       transform="matrix(0.26458333,0,0,0.26458333,-2.9488972,-5.8333321)" />
    <path
       style="fill:#0000ff;stroke-width:1.04589"
       d="m 360.86548,391.3027 c -7.44893,-2.3936 -13.0605,-6.00743 -18.49024,-11.90767 -5.40628,-5.87475 -8.27525,-11.38734 -10.18342,-19.56694 l -1.47162,-6.30826 h 46.80806 c 25.74444,0 52.52976,-0.30766 59.52294,-0.68368 l 12.71488,-0.68367 v 10.09668 10.09668 h -17.76075 -17.76075 l -6.63675,6.63674 c -3.85398,3.85399 -9.01492,7.75057 -12.30857,9.29316 -11.10536,5.20123 -24.10979,6.3444 -34.43378,3.02696 z"
       id="path40"
       transform="matrix(0.26458333,0,0,0.26458333,-2.9488972,-5.8333321)" />
    <path
       style="fill:#0000ff;stroke-width:1.04589"
       d="m 360.86548,391.3027 c -7.44893,-2.3936 -13.0605,-6.00743 -18.49024,-11.90767 -5.40628,-5.87475 -8.27525,-11.38734 -10.18342,-19.56694 l -1.47162,-6.30826 h 46.80806 c 25.74444,0 52.52976,-0.30766 59.52294,-0.68368 l 12.71488,-0.68367 v 10.09668 10.09668 h -17.76075 -17.76075 l -6.63675,6.63674 c -3.85398,3.85399 -9.01492,7.75057 -12.30857,9.29316 -11.10536,5.20123 -24.10979,6.3444 -34.43378,3.02696 z"
       id="path42"
       transform="matrix(0.26458333,0,0,0.26458333,-2.9488972,-5.8333321)" />
    <path
       style="fill:#0000ff;stroke-width:1.04589"
       d="m 360.86548,391.3027 c -7.44893,-2.3936 -13.0605,-6.00743 -18.49024,-11.90767 -5.40628,-5.87475 -8.27525,-11.38734 -10.18342,-19.56694 l -1.47162,-6.30826 h 46.80806 c 25.74444,0 52.52976,-0.30766 59.52294,-0.68368 l 12.71488,-0.68367 v 10.09668 10.09668 h -17.76075 -17.76075 l -6.63675,6.63674 c -3.85398,3.85399 -9.01492,7.75057 -12.30857,9.29316 -11.10536,5.20123 -24.10979,6.3444 -34.43378,3.02696 z"
       id="path44"
       transform="matrix(0.26458333,0,0,0.26458333,-2.9488972,-5.8333321)" />
    <path
       style="fill:#0000ff;stroke-width:1.04589"
       d="m 360.86548,391.3027 c -7.44893,-2.3936 -13.0605,-6.00743 -18.49024,-11.90767 -5.40628,-5.87475 -8.27525,-11.38734 -10.18342,-19.56694 l -1.47162,-6.30826 h 46.80806 c 25.74444,0 52.52976,-0.30766 59.52294,-0.68368 l 12.71488,-0.68367 v 10.09668 10.09668 h -17.76075 -17.76075 l -6.63675,6.63674 c -3.85398,3.85399 -9.01492,7.75057 -12.30857,9.29316 -11.10536,5.20123 -24.10979,6.3444 -34.43378,3.02696 z"
       id="path46"
       transform="matrix(0.26458333,0,0,0.26458333,-2.9488972,-5.8333321)" />
  </g>
  <g
     inkscape:groupmode="layer"
     id="layer1"
     inkscape:label="filling-e-down">
    <path
       style="display:inline;fill:#f9f9f9;stroke-width:0.941358"
       d="m 343.35961,366.75429 c -16.98945,-4.57487 -28.5008,-17.4635 -31.70092,-35.49377 l -0.62654,-3.53009 h 57.46549 l 63.01216,-1.47911 -0.36978,6.23972 c 0,0 1.05817,14.04964 -0.1813,14.04964 -0.46662,0 -16.32446,0.019 -21.67057,0.0163 -4.48003,-0.002 -13.51021,0.0163 -14.51628,0.0163 -1.21445,0 5.43362,-7.28294 2.61491,-3.043 -5.85688,8.81001 -14.35864,16.67224 -21.55852,19.93682 -10.33388,4.6856 -22.64615,5.9321 -32.46865,3.28713 z"
       id="path245"
       sodipodi:nodetypes="sscccssssssss"
       transform="matrix(0.26458333,0,0,0.26458333,5.0861325,6.8247884)" />
    <path
       style="fill:#0000ff;stroke-width:1.04589"
       d="m 360.86548,391.3027 c -7.44893,-2.3936 -13.0605,-6.00743 -18.49024,-11.90767 -5.40628,-5.87475 -8.27525,-11.38734 -10.18342,-19.56694 l -1.47162,-6.30826 h 46.80806 c 25.74444,0 52.52976,-0.30766 59.52294,-0.68368 l 12.71488,-0.68367 v 10.09668 10.09668 h -17.76075 -17.76075 l -6.63675,6.63674 c -3.85398,3.85399 -9.01492,7.75057 -12.30857,9.29316 -11.10536,5.20123 -24.10979,6.3444 -34.43378,3.02696 z"
       id="path50"
       transform="scale(0.26458333)" />
    <path
       style="fill:#800000;stroke-width:2.09178"
       d="M 304.33179,681.85926 C 227.44009,670.62791 159.19197,637.62544 104.5209,585.23746 49.851434,532.85104 18.307336,474.16384 6.0020458,401.94497 0.32627525,368.63429 1.2845041,310.22207 8.0146155,279.26168 22.448357,212.86245 48.811467,164.35298 98.247206,113.22912 130.76754,79.598303 160.73073,58.022905 201.89029,38.599532 c 107.56604,-50.76088 251.53839,-49.359896 357.21512,3.476032 38.32963,19.163939 70.76624,42.65952 96.38528,69.817056 32.87446,34.84864 39.98433,51.06019 26.57954,60.60524 -19.38968,13.80667 -66.28228,39.82689 -71.77441,39.82689 -5.01125,0 -10.8733,-4.60256 -31.97022,-25.10134 -14.2086,-13.80574 -26.82132,-25.10135 -28.02825,-25.10135 -1.51022,0 -2.3611,56.05001 -2.729,179.76589 l -0.53455,179.76588 -22.86664,-17.65302 c -12.57663,-9.70916 -23.87224,-17.63531 -25.10134,-17.61368 -1.22909,0.0215 -11.97293,7.61905 -23.87519,16.88312 -11.90229,9.26405 -21.98378,16.50046 -22.40337,16.08087 -0.41959,-0.41957 -1.41222,-12.25283 -2.20589,-26.29611 -0.79364,-14.04328 -1.79591,-25.53324 -2.22724,-25.53324 -0.43135,0 -7.19605,3.22891 -15.03267,7.17539 -21.38156,10.76758 -37.56164,14.46252 -64.08886,14.63559 -18.56174,0.12112 -26.04219,-0.79657 -38.69791,-4.74725 -23.57213,-7.35842 -42.5016,-18.21979 -59.62658,-34.21263 -25.49792,-23.81225 -40.45316,-52.18691 -44.98395,-85.34826 -6.11331,-44.74415 7.85147,-85.21075 40.76873,-118.13792 19.1727,-19.17845 36.70325,-30.18035 60.70413,-38.0969 14.51699,-4.78835 20.33726,-5.53361 43.92735,-5.62473 24.52048,-0.0947 28.83783,0.46849 43.92736,5.73033 9.20383,3.20946 19.66925,7.64727 23.25646,9.86181 3.58723,2.21455 7.58776,4.02645 8.89006,4.02645 1.70179,0 2.36783,-15.27572 2.36783,-54.30563 V 114.1724 l -7.84417,-2.08629 c -15.35543,-4.08404 -56.16027,-6.93126 -81.55402,-5.69057 -75.11817,3.67015 -134.6079,29.94616 -183.61647,81.10155 -38.28024,39.9571 -57.05444,82.93521 -60.64517,138.82961 -2.77789,43.24161 4.68796,80.12346 24.13556,119.2314 26.57868,53.44808 73.03248,96.91177 126.43214,118.29404 50.43336,20.1945 111.41632,25.46699 168.44968,14.56391 26.78152,-5.11982 42.7555,-10.62235 70.07459,-24.13844 27.21563,-13.46491 50.58388,-30.48251 80.22007,-58.41916 19.99601,-18.84931 22.14707,-20.30933 28.15208,-19.10833 3.57601,0.7152 21.60174,11.40364 40.05721,23.75208 31.09218,20.80358 33.60433,22.96163 34.22192,29.39803 0.77541,8.08108 -2.02588,12.92364 -18.26604,31.57628 -54.62268,62.73692 -142.04902,106.88833 -238.21386,120.301 -28.9192,4.03354 -99.67153,4.07908 -127.03781,0.0818 z m 102.0354,-262.9698 c 14.79436,-6.79587 32.44487,-23.14034 40.0204,-37.05908 5.60452,-10.29735 5.65951,-10.77902 4.24254,-37.15171 -1.08605,-20.21367 -2.43186,-28.70127 -5.52746,-34.86037 -5.93988,-11.81807 -20.7748,-26.82863 -33.4612,-33.85739 -10.54219,-5.84077 -12.19353,-6.11224 -37.17943,-6.11224 -23.46838,0 -27.0959,0.50586 -35.40676,4.9375 -13.95332,7.44039 -30.09859,23.86366 -36.75544,37.38829 -7.07641,14.37698 -9.32737,37.87724 -5.25432,54.85562 5.48443,22.86172 26.72833,45.76796 50.68802,54.6544 16.09746,5.97039 42.26749,4.7229 58.63365,-2.79502 z"
       id="path58"
       transform="scale(0.26458333)" />
    <path
       style="fill:#800000;stroke-width:2.09178"
       d="m 353.06779,325.40748 -16.16481,-1.17256 5.53956,-7.0602 c 14.68864,-18.72075 44.43583,-19.71357 62.07755,-2.07184 4.50378,4.50378 7.81956,8.50559 7.36839,8.8929 -1.7679,1.5177 -43.53888,2.5202 -58.82069,1.4117 z"
       id="path60"
       transform="scale(0.26458333)" />
    <path
       style="fill:#800000;stroke-width:2.09178"
       d="m 358.7737,389.31257 c -10.6022,-4.63162 -19.40061,-13.50102 -23.16127,-23.34819 -1.97448,-5.17009 -3.19705,-9.79306 -2.71684,-10.27327 0.48021,-0.48021 26.9733,-1.1652 58.87354,-1.5222 l 58.00044,-0.64908 -0.002,8.89006 -0.002,8.89006 H 431.784 413.80192 l -9.4774,8.34233 c -13.75934,12.11146 -31.39326,15.85509 -45.55082,9.67029 z"
       id="path62"
       transform="scale(0.26458333)" />
  </g>
</svg>
