<?xml version="1.0" encoding="UTF-8" standalone="no"?>
<svg
   xmlns:dc="http://purl.org/dc/elements/1.1/"
   xmlns:cc="http://creativecommons.org/ns#"
   xmlns:rdf="http://www.w3.org/1999/02/22-rdf-syntax-ns#"
   xmlns:svg="http://www.w3.org/2000/svg"
   xmlns="http://www.w3.org/2000/svg"
   xmlns:sodipodi="http://sodipodi.sourceforge.net/DTD/sodipodi-0.dtd"
   xmlns:inkscape="http://www.inkscape.org/namespaces/inkscape"
   width="185.70293mm"
   height="189.04977mm"
   viewBox="0 0 185.70294 189.04978"
   version="1.1"
   id="svg8"
   sodipodi:docname="logo-codever-full-colored-inverted-transparent.svg"
   inkscape:version="1.0.2 (e86c8708, 2021-01-15)">
  <defs
     id="defs2" />
  <sodipodi:namedview
     id="base"
     pagecolor="#ffffff"
     bordercolor="#666666"
     borderopacity="1.0"
     inkscape:pageopacity="0.0"
     inkscape:pageshadow="2"
     inkscape:zoom="0.75115614"
     inkscape:cx="461.46252"
     inkscape:cy="345.81761"
     inkscape:document-units="mm"
     inkscape:current-layer="layer7"
     inkscape:document-rotation="0"
     showgrid="false"
     inkscape:window-width="1440"
     inkscape:window-height="800"
     inkscape:window-x="515"
     inkscape:window-y="1463"
     inkscape:window-maximized="0"
     inkscape:snap-text-baseline="true"
     inkscape:snap-center="false" />
  <metadata
     id="metadata5">
    <rdf:RDF>
      <cc:Work
         rdf:about="">
        <dc:format>image/svg+xml</dc:format>
        <dc:type
           rdf:resource="http://purl.org/dc/dcmitype/StillImage" />
        <dc:title></dc:title>
      </cc:Work>
    </rdf:RDF>
  </metadata>
  <g
     inkscape:groupmode="layer"
     id="layer4"
     inkscape:label="c-letter"
     style="display:inline"
     transform="translate(4.3881051,11.524057)">
    <path
       id="text391"
       style="font-style:normal;font-variant:normal;font-weight:normal;font-stretch:normal;font-size:225.507px;line-height:1.25;font-family:'Heiti SC';-inkscape-font-specification:'Heiti SC, Normal';font-variant-ligatures:normal;font-variant-caps:normal;font-variant-numeric:normal;font-variant-east-asian:normal;fill:#d4aa00;stroke-width:1.17452"
       sodipodi:type="inkscape:offset"
       inkscape:radius="-2.7883605e-05"
       inkscape:original="M 68.289062 -2.9394531 C 47.705411 -2.9394531 30.707567 3.6852459 17.673828 16.869141 C 17.672828 16.870141 17.672929 16.872047 17.671875 16.873047 C 17.670879 16.874047 17.668969 16.873945 17.667969 16.875 A 3.5557838 3.5557838 0 0 0 17.521484 17.035156 C 4.6224125 30.011006 -1.9101561 45.816267 -1.9101562 64.103516 C -1.9101561 82.462914 4.5946958 98.181413 17.457031 110.89062 A 3.5557838 3.5557838 0 0 0 17.470703 110.90625 C 30.490301 123.61496 46.796229 130.01758 66.035156 130.01758 C 78.287963 130.01758 89.684673 127.52021 100.16992 122.56055 A 3.5557838 3.5557838 0 0 0 100.4668 122.44141 C 100.4688 122.44041 100.47066 122.4385 100.47266 122.4375 C 110.52689 117.69637 118.72385 110.83031 125.13281 102.08398 A 3.5557838 3.5557838 0 0 0 124.2793 97.052734 L 113.26367 89.480469 A 3.5557838 3.5557838 0 0 0 108.55078 90.097656 C 97.268458 103.26486 83.734161 109.81445 67.613281 109.81445 C 53.659723 109.81444 42.27627 105.23287 33.220703 96.03125 C 24.142202 86.806321 19.646484 75.855695 19.646484 62.974609 C 19.646484 50.10369 24.203537 39.483353 33.402344 30.867188 C 33.402345 30.867186 33.404197 30.863281 33.404297 30.863281 L 33.40625 30.861328 A 3.5557838 3.5557838 0 0 0 33.425781 30.84375 C 42.632305 22.081554 53.956307 17.714844 67.613281 17.714844 C 84.318541 17.714844 97.765069 24.197337 108.35156 37.175781 A 3.5557838 3.5557838 0 0 0 113.00391 37.935547 L 124.20898 30.867188 A 3.5557838 3.5557838 0 0 0 125.28906 25.914062 C 119.61763 17.238756 111.99208 10.289769 102.37305 5.2773438 A 3.5557838 3.5557838 0 0 0 102.11914 5.1269531 A 3.5557838 3.5557838 0 0 0 102.09766 5.1152344 C 102.09466 5.1137244 102.09284 5.110885 102.08984 5.109375 L 102.08789 5.1113281 C 91.814932 -0.25331967 80.516893 -2.9394531 68.289062 -2.9394531 z M 98.851562 11.441406 A 3.5557838 3.5557838 0 0 0 98.882812 11.455078 L 98.882812 11.457031 C 96.22206 10.136977 101.50417 12.777764 98.851562 11.441406 z M 22.425781 22.144531 C 20.111682 24.006757 24.725354 20.317377 22.400391 22.166016 L 22.400391 22.164062 A 3.5557838 3.5557838 0 0 0 22.425781 22.144531 z "
       d="m 68.289062,-2.9394531 c -20.583651,0 -37.581495,6.624699 -50.615234,19.8085941 -0.001,0.001 -8.99e-4,0.0029 -0.002,0.0039 -9.96e-4,0.001 -0.0029,8.98e-4 -0.0039,0.002 a 3.5557838,3.5557838 0 0 0 -0.146485,0.160156 c -12.8990715,12.97585 -19.4316401,28.781111 -19.4316402,47.06836 1e-7,18.359398 6.504852,34.077897 19.3671872,46.787104 a 3.5557838,3.5557838 0 0 0 0.01367,0.0156 c 13.019598,12.70871 29.325526,19.11133 48.564453,19.11133 12.252807,0 23.649517,-2.49737 34.134764,-7.45703 a 3.5557838,3.5557838 0 0 0 0.29688,-0.11914 c 0.002,-0.001 0.004,-0.003 0.006,-0.004 10.05423,-4.74113 18.25119,-11.60719 24.66015,-20.35352 a 3.5557838,3.5557838 0 0 0 -0.85351,-5.031246 l -11.01563,-7.572265 a 3.5557838,3.5557838 0 0 0 -4.71289,0.617187 C 97.268458,103.26486 83.734161,109.81445 67.613281,109.81445 53.659723,109.81444 42.27627,105.23287 33.220703,96.03125 24.142202,86.806321 19.646484,75.855695 19.646484,62.974609 c 0,-12.870919 4.557053,-23.491256 13.75586,-32.107421 10e-7,-2e-6 0.0019,-0.0039 0.002,-0.0039 l 0.002,-0.002 a 3.5557838,3.5557838 0 0 0 0.01953,-0.01758 c 9.206524,-8.762196 20.530526,-13.128906 34.1875,-13.128906 16.70526,0 30.151788,6.482493 40.738279,19.460937 a 3.5557838,3.5557838 0 0 0 4.65235,0.759766 l 11.20507,-7.068359 a 3.5557838,3.5557838 0 0 0 1.08008,-4.953126 C 119.61763,17.238756 111.99208,10.289769 102.37305,5.2773438 a 3.5557838,3.5557838 0 0 0 -0.25391,-0.1503907 3.5557838,3.5557838 0 0 0 -0.0215,-0.011719 c -0.003,-0.00151 -0.005,-0.00435 -0.008,-0.00586 l -0.002,0.00195 C 91.814932,-0.25331967 80.516893,-2.9394531 68.289062,-2.9394531 Z m 30.5625,14.3808591 a 3.5557838,3.5557838 0 0 0 0.03125,0.01367 v 0.002 c -2.660752,-1.320054 2.621358,1.320733 -0.03125,-0.01563 z M 22.425781,22.144531 c -2.314099,1.862226 2.299573,-1.827154 -0.02539,0.02148 v -0.002 a 3.5557838,3.5557838 0 0 0 0.02539,-0.01953 z"
       transform="matrix(1.4308241,0,0,1.4006929,-0.21579972,-5.9978855)" />
  </g>
  <g
     inkscape:groupmode="layer"
     id="layer5"
     inkscape:label="o-letter"
     style="display:inline"
     transform="translate(4.3881051,11.524057)">
    <g
       aria-label="o"
       transform="matrix(1.4056435,0,0,1.3112684,1.3377346,0.30168749)"
       id="text395"
       style="font-style:normal;font-variant:normal;font-weight:300;font-stretch:normal;font-size:157.46700000000001296px;line-height:1.25;font-family:'Heiti SC';-inkscape-font-specification:'Heiti SC, Light';font-variant-ligatures:normal;font-variant-caps:normal;font-variant-numeric:normal;font-variant-east-asian:normal;fill:none;stroke-width:0.984173">
      <path
         id="path509"
         style="font-style:normal;font-variant:normal;font-weight:300;font-stretch:normal;font-size:157.46700000000001296px;font-family:'Heiti SC';-inkscape-font-specification:'Heiti SC, Light';font-variant-ligatures:normal;font-variant-caps:normal;font-variant-numeric:normal;font-variant-east-asian:normal;fill:none;stroke-width:0.984173"
         sodipodi:type="inkscape:offset"
         inkscape:radius="6.9040298"
         inkscape:original="M 66.125 20.367188 C 54.05253 20.367187 43.764936 24.724326 35.261719 33.4375 C 26.863479 42.150674 22.664062 52.649215 22.664062 64.931641 C 22.664062 77.004111 26.863479 87.396202 35.261719 96.109375 C 43.659958 104.71757 54.000777 109.02148 66.283203 109.02148 C 78.565628 109.02148 88.853222 104.71757 97.146484 96.109375 C 105.54473 87.396202 109.74414 76.950885 109.74414 64.773438 C 109.74414 52.59599 105.4915 42.150674 96.988281 33.4375 C 88.590041 24.724326 78.302447 20.367188 66.125 20.367188 z M 66.125 30.917969 C 75.048129 30.917969 82.711576 34.330727 89.115234 41.154297 C 95.62387 47.872889 98.878906 55.849827 98.878906 65.087891 C 98.878906 74.430933 95.677096 82.409824 89.273438 89.023438 C 82.974758 95.532073 75.20486 98.787109 65.966797 98.787109 C 56.833711 98.787109 49.170264 95.532074 42.976562 89.023438 C 36.782861 82.514802 33.6875 74.589136 33.6875 65.246094 C 33.6875 55.903052 36.889311 47.872889 43.292969 41.154297 C 49.696626 34.330727 57.306848 30.917969 66.125 30.917969 z "
         d="m 66.125,13.462891 c -13.73365,-2e-6 -26.160952,5.27049 -35.804688,15.152343 a 6.9047202,6.9047202 0 0 0 -0.0293,0.03125 c -9.523206,9.880327 -14.53125,22.429051 -14.53125,36.285157 0,13.673517 5.027542,26.108654 14.53125,35.968749 a 6.9047202,6.9047202 0 0 0 0.0293,0.0293 c 9.573189,9.81252 22.067628,14.99609 35.962891,14.99609 13.894774,0 26.359316,-5.19147 35.833987,-15.02539 9.51346,-9.870212 14.53125,-22.362262 14.53125,-36.126952 0,-13.778165 -5.09016,-26.281223 -14.70703,-36.142579 C 92.388385,18.728406 79.941347,13.462891 66.125,13.462891 Z m 0,24.359375 c 7.162776,0 12.646226,2.399666 17.955078,8.05664 a 6.9047202,6.9047202 0 0 0 0.07617,0.08008 c 5.40883,5.583308 7.818359,11.512601 7.818359,19.128907 0,7.765726 -2.388756,13.686563 -7.662109,19.132812 a 6.9047202,6.9047202 0 0 0 0,0.002 c -5.12547,5.296319 -10.729399,7.660156 -18.345703,7.660156 -7.492687,0 -12.962661,-2.337979 -17.988281,-7.61914 -5.056091,-5.313181 -7.386719,-11.199412 -7.386719,-19.017578 0,-7.765726 2.398145,-13.766343 7.699219,-19.328125 a 6.9047202,6.9047202 0 0 0 0.03711,-0.03906 C 53.65004,40.208013 59.088157,37.822266 66.125,37.822266 Z"
         transform="translate(1.9491029,-0.9497202)" />
    </g>
  </g>
  <g
     inkscape:groupmode="layer"
     id="layer6"
     inkscape:label="d-letter"
     style="display:inline"
     transform="translate(4.3881051,11.524057)">
    <path
       id="text399"
       style="font-style:normal;font-variant:normal;font-weight:normal;font-stretch:normal;font-size:101.712px;line-height:1.25;font-family:'Heiti SC';-inkscape-font-specification:'Heiti SC, Normal';font-variant-ligatures:normal;font-variant-caps:normal;font-variant-numeric:normal;font-variant-east-asian:normal;fill:#d4aa00;stroke-width:1.0595"
       transform="matrix(1.2187819,0,0,1.1523248,15.201135,9.0198282)"
       d="m 86.568359,10.71875 c -3.510741,8.84e-4 1.735619,3.152354 1.734736,6.663095 l 0.867016,20.422469 -5.491106,-2.256398 c -1.933062,-0.945593 -4.640276,-2.733507 -7.489397,-3.747094 -3.540882,-1.259685 -7.300946,-1.656291 -10.066561,-1.656291 -9.579313,0 -18.396287,3.710557 -25.083985,10.554688 -6.671105,6.760688 -10.261718,15.556128 -10.261718,25.095703 0,9.530364 3.53357,18.333506 10.123047,25.164062 6.600592,6.842078 15.296595,10.587896 24.714843,10.587896 1.230456,0 6.578326,-0.2927 10.316114,-1.32884 5.01697,-1.390735 8.523217,-3.630792 8.523217,-3.630792 1.160885,-0.344491 3.558822,0.684163 3.558822,0.684163 v 0 l 7.660271,0.611347 c 3.51074,-8.85e-4 5.489522,-1.012643 5.490402,-4.523383 V 17.076172 c -8.8e-4,-3.51074 -2.846679,-6.356537 -6.357419,-6.357422 z M 66.326172,50.996094 c 4.497472,0 7.35335,1.246293 10.103516,4.189453 0.02452,0.02625 0.04926,0.0523 0.07422,0.07813 2.815792,2.912888 4.113282,6.119201 4.113282,10.939453 0,4.642302 -1.297059,7.660709 -4.332032,10.548828 -3.227332,3.071171 -6.185789,4.25 -9.958984,4.25 -4.106017,0 -6.996328,-1.236573 -10.042969,-4.435547 -3.094259,-3.248972 -4.347656,-6.385528 -4.347656,-10.568359 0,-4.317115 1.240682,-7.460864 4.181641,-10.605469 l 0.002,-0.002 c 2.934358,-3.132448 5.843773,-4.394531 10.207031,-4.394531 z"
       sodipodi:nodetypes="ccccsscsssssccccccccscssssscccc" />
  </g>
  <g
     inkscape:groupmode="layer"
     id="layer7"
     inkscape:label="e-letter"
     style="display:inline;opacity:1"
     transform="translate(4.3881051,11.524057)">
    <path
       id="text403"
       style="font-style:normal;font-variant:normal;font-weight:normal;font-stretch:normal;font-size:52.91669999999999874px;line-height:1.25;font-family:'Heiti SC';-inkscape-font-specification:'Heiti SC, Normal';font-variant-ligatures:normal;font-variant-caps:normal;font-variant-numeric:normal;font-variant-east-asian:normal;fill:#1a1a1a;stroke-width:1.28323"
       sodipodi:type="inkscape:offset"
       inkscape:radius="0.5283078"
       inkscape:original="M 67.416016 47.960938 C 63.031364 47.960938 59.255375 49.56378 56.265625 52.701172 A 0.78370593 0.78370593 0 0 0 56.261719 52.705078 C 53.314355 55.836651 51.816406 59.663562 51.816406 64.037109 C 51.816406 68.410656 53.314239 72.239396 56.261719 75.371094 A 0.78370593 0.78370593 0 0 0 56.263672 75.375 C 59.224323 78.483684 63.05686 80.060547 67.574219 80.060547 C 70.834006 80.060547 73.694916 79.305034 76.091797 77.769531 A 0.78370593 0.78370593 0 0 0 76.099609 77.763672 C 78.491467 76.194014 80.530669 73.807965 82.234375 70.654297 A 0.78370593 0.78370593 0 0 0 81.902344 69.583984 L 78.197266 67.679688 A 0.78370593 0.78370593 0 0 0 77.148438 68.007812 C 74.811494 72.37688 71.621994 74.419922 67.257812 74.419922 C 64.728607 74.419922 62.615667 73.561686 60.771484 71.787109 C 59.159564 70.173781 58.303654 68.04663 58.003906 65.457031 L 82.337891 65.457031 A 0.78370593 0.78370593 0 0 0 83.121094 64.65625 C 83.012168 59.573075 81.480356 55.460629 78.501953 52.480469 C 75.543352 49.484884 71.791978 47.960938 67.416016 47.960938 z M 67.416016 53.761719 C 69.702393 53.761719 71.667093 54.394072 73.40625 55.673828 C 74.856886 56.741277 75.759844 58.226539 76.333984 60.027344 L 58.773438 60.027344 C 59.526881 58.099503 60.483417 56.549053 61.740234 55.548828 C 63.230564 54.362764 65.084656 53.761719 67.416016 53.761719 z "
       d="m 67.416016,47.433594 c -4.508634,0 -8.44387,1.66613 -11.523438,4.892578 -0.0022,0.0022 -0.0037,0.0037 -0.0059,0.0059 a 0.52836063,0.52836063 0 0 0 -0.002,0.002 c -6.52e-4,6.84e-4 -0.0013,0.0013 -0.002,0.002 a 0.52836063,0.52836063 0 0 0 -0.0059,0.0078 c -3.033358,3.222942 -4.587891,7.199181 -4.587891,11.693359 0,4.458016 1.537892,8.404023 4.523438,11.613282 a 0.52836063,0.52836063 0 0 0 0.06836,0.08984 c 3.056149,3.208957 7.053057,4.847657 11.69336,4.847657 3.341417,0 6.311348,-0.777002 8.802734,-2.373047 a 0.52836063,0.52836063 0 0 0 0.01172,-0.0098 c 2.482023,-1.628829 4.576015,-4.0881 6.310547,-7.298828 0.331434,-0.612853 0.06346,-1.475299 -0.556641,-1.792969 l -3.703125,-1.904297 a 0.52836063,0.52836063 0 0 0 -0.002,0 c -0.604747,-0.310069 -1.435651,-0.04866 -1.755859,0.550782 -2.274845,4.252079 -5.225042,6.132812 -9.423829,6.132812 -2.409691,0 -4.358913,-0.792538 -6.11914,-2.486328 -1.377945,-1.382459 -2.112308,-3.216874 -2.460938,-5.421875 h 23.660157 c 0.696321,-2.82e-4 1.325718,-0.643688 1.310547,-1.339844 C 83.537393,59.46249 81.961826,55.197204 78.876953,52.109375 75.824407,49.018671 71.914634,47.433594 67.416016,47.433594 Z m 0,6.855468 c 2.188966,0 4.024645,0.594124 5.677734,1.810547 1.147102,0.844094 1.873542,2.01902 2.419922,3.400391 H 59.625 c 0.67419,-1.501169 1.458706,-2.753483 2.443359,-3.537109 1.391325,-1.107272 3.107098,-1.673829 5.347657,-1.673829 z"
       transform="matrix(1.4224886,0,0,1.3334441,-1.4637358,-1.4221899)" />
    <path
       style="fill:#d4aa00;stroke-width:1.33128"
       d="m 333.65953,336.03274 c 0,-2.16553 7.8352,-11.92946 12.31475,-15.34618 6.8594,-5.23192 15.21315,-7.718 26.2924,-7.82464 12.39752,-0.11933 23.29005,2.96229 30.84865,8.72743 5.39507,4.11495 11.75235,11.92637 11.75235,14.44053 0,0.62392 -18.27183,1.1344 -40.60407,1.1344 -22.33225,0 -40.60408,-0.50919 -40.60408,-1.13154 z"
       id="path86"
       transform="matrix(0.26458333,0,0,0.26458333,-4.3881051,-11.524057)" />
    <path
       style="fill:#d4aa00;stroke-width:1.33128"
       d="m 363.48916,409.07204 c -17.46961,-3.65395 -29.521,-14.57455 -34.55973,-31.31697 l -1.79895,-5.97748 h 58.51269 58.5127 v 3.77197 c 0,5.3572 -0.9948,5.77278 -6.76822,2.8274 -8.89853,-4.53969 -10.90663,-3.7661 -19.14656,7.37595 -8.25434,11.16152 -15.0186,16.66209 -25.15276,20.45377 -8.24982,3.08665 -22.12111,4.42947 -29.59917,2.86536 z"
       id="path88"
       transform="matrix(0.26458333,0,0,0.26458333,-4.3881051,-11.524057)" />
  </g>
  <g
     inkscape:groupmode="layer"
     id="layer3"
     inkscape:label="bookmark"
     style="display:inline;opacity:1"
     transform="translate(4.3881051,11.524057)">
    <path
       fill="currentColor"
       d="M 118.6852,132.77794 V 12.06045 c 0,-6.8970331 1.56006,-12.4880157 3.48453,-12.4880157 h 20.90732 c 1.92447,0 3.48453,5.5909826 3.48453,12.4880157 v 120.71749 l -13.93819,-10.52962 z"
       id="path405"
       style="fill:#d4aa00;stroke-width:0.13743"
       sodipodi:nodetypes="cssssccc" />
  </g>
</svg>
