<?xml version="1.0" encoding="UTF-8" standalone="no"?>
<svg
   xmlns:dc="http://purl.org/dc/elements/1.1/"
   xmlns:cc="http://creativecommons.org/ns#"
   xmlns:rdf="http://www.w3.org/1999/02/22-rdf-syntax-ns#"
   xmlns:svg="http://www.w3.org/2000/svg"
   xmlns="http://www.w3.org/2000/svg"
   xmlns:sodipodi="http://sodipodi.sourceforge.net/DTD/sodipodi-0.dtd"
   xmlns:inkscape="http://www.inkscape.org/namespaces/inkscape"
   width="185.70293mm"
   height="189.04977mm"
   viewBox="0 0 185.70294 189.04978"
   version="1.1"
   id="svg8"
   sodipodi:docname="logo-codever-full-colored.svg"
   inkscape:version="1.0.2 (e86c8708, 2021-01-15)">
  <defs
     id="defs2" />
  <sodipodi:namedview
     id="base"
     pagecolor="#ffffff"
     bordercolor="#666666"
     borderopacity="1.0"
     inkscape:pageopacity="0.0"
     inkscape:pageshadow="2"
     inkscape:zoom="0.75115614"
     inkscape:cx="461.46252"
     inkscape:cy="345.81761"
     inkscape:document-units="mm"
     inkscape:current-layer="layer7"
     inkscape:document-rotation="0"
     showgrid="false"
     inkscape:window-width="2560"
     inkscape:window-height="1395"
     inkscape:window-x="0"
     inkscape:window-y="23"
     inkscape:window-maximized="1"
     inkscape:snap-text-baseline="true"
     inkscape:snap-center="false" />
  <metadata
     id="metadata5">
    <rdf:RDF>
      <cc:Work
         rdf:about="">
        <dc:format>image/svg+xml</dc:format>
        <dc:type
           rdf:resource="http://purl.org/dc/dcmitype/StillImage" />
        <dc:title />
      </cc:Work>
    </rdf:RDF>
  </metadata>
  <g
     inkscape:groupmode="layer"
     id="layer4"
     inkscape:label="c-letter"
     style="display:inline"
     transform="translate(4.3881051,11.524057)">
    <path
       id="text391"
       style="font-style:normal;font-variant:normal;font-weight:normal;font-stretch:normal;font-size:225.507px;line-height:1.25;font-family:'Heiti SC';-inkscape-font-specification:'Heiti SC, Normal';font-variant-ligatures:normal;font-variant-caps:normal;font-variant-numeric:normal;font-variant-east-asian:normal;fill:#000000;stroke-width:1.17452"
       sodipodi:type="inkscape:offset"
       inkscape:radius="1.0058873"
       inkscape:original="M 68.289062 -2.9394531 C 47.705411 -2.9394531 30.707567 3.6852459 17.673828 16.869141 C 17.672828 16.870141 17.672929 16.872047 17.671875 16.873047 C 17.670879 16.874047 17.668969 16.873945 17.667969 16.875 A 3.5557838 3.5557838 0 0 0 17.521484 17.035156 C 4.6224125 30.011006 -1.9101561 45.816267 -1.9101562 64.103516 C -1.9101561 82.462914 4.5946958 98.181413 17.457031 110.89062 A 3.5557838 3.5557838 0 0 0 17.470703 110.90625 C 30.490301 123.61496 46.796229 130.01758 66.035156 130.01758 C 78.287963 130.01758 89.684673 127.52021 100.16992 122.56055 A 3.5557838 3.5557838 0 0 0 100.4668 122.44141 C 100.4688 122.44041 100.47066 122.4385 100.47266 122.4375 C 110.52689 117.69637 118.72385 110.83031 125.13281 102.08398 A 3.5557838 3.5557838 0 0 0 124.2793 97.052734 L 113.26367 89.480469 A 3.5557838 3.5557838 0 0 0 108.55078 90.097656 C 97.268458 103.26486 83.734161 109.81445 67.613281 109.81445 C 53.659723 109.81444 42.27627 105.23287 33.220703 96.03125 C 24.142202 86.806321 19.646484 75.855695 19.646484 62.974609 C 19.646484 50.10369 24.203537 39.483353 33.402344 30.867188 C 33.402345 30.867186 33.404197 30.863281 33.404297 30.863281 L 33.40625 30.861328 A 3.5557838 3.5557838 0 0 0 33.425781 30.84375 C 42.632305 22.081554 53.956307 17.714844 67.613281 17.714844 C 84.318541 17.714844 97.765069 24.197337 108.35156 37.175781 A 3.5557838 3.5557838 0 0 0 113.00391 37.935547 L 124.20898 30.867188 A 3.5557838 3.5557838 0 0 0 125.28906 25.914062 C 119.61763 17.238756 111.99208 10.289769 102.37305 5.2773438 A 3.5557838 3.5557838 0 0 0 102.11914 5.1269531 A 3.5557838 3.5557838 0 0 0 102.09766 5.1152344 C 102.09466 5.1137244 102.09284 5.110885 102.08984 5.109375 L 102.08789 5.1113281 C 91.814932 -0.25331967 80.516893 -2.9394531 68.289062 -2.9394531 z M 98.851562 11.441406 A 3.5557838 3.5557838 0 0 0 98.882812 11.455078 L 98.882812 11.457031 C 96.22206 10.136977 101.50417 12.777764 98.851562 11.441406 z M 22.425781 22.144531 C 20.111682 24.006757 24.725354 20.317377 22.400391 22.166016 L 22.400391 22.164062 A 3.5557838 3.5557838 0 0 0 22.425781 22.144531 z "
       d="m 68.289062,-3.9453125 c -20.788652,0 -38.088524,6.7267277 -51.308593,20.0878905 -0.0069,0.007 -0.0146,0.01257 -0.02148,0.01953 a 1.0059879,1.0059879 0 0 0 0,0.002 c -2.1e-4,3.05e-4 -0.0054,0.0071 -0.0059,0.0078 -0.0013,9.56e-4 -0.01347,0.0096 -0.01367,0.0098 -3.3e-5,2.4e-5 -0.002,0.002 -0.002,0.002 -0.06131,0.06344 -0.120209,0.128428 -0.177734,0.195312 C 3.7264453,29.514475 -2.9160155,45.60104 -2.9160156,64.103516 -2.9160155,82.700508 3.7133175,98.72399 16.75,111.60547 l -0.03516,-0.0352 a 1.0059879,1.0059879 0 0 0 0.05273,0.0566 c 13.199167,12.88399 29.805482,19.39649 49.267578,19.39649 12.352391,0 23.871097,-2.5193 34.466794,-7.51367 l 0.0977,-0.0391 c 0.0952,-0.0358 0.19057,-0.0712 0.2832,-0.11328 a 1.0059879,1.0059879 0 0 0 0.0195,-0.01 c 0.007,-0.003 0.0129,-0.007 0.0195,-0.01 -1.2e-4,6e-5 0.0143,-0.008 0.0176,-0.01 10.18481,-4.81037 18.50978,-11.78783 25.00391,-20.65039 0.71919,-0.98168 1.02189,-2.25918 0.81836,-3.45898 -0.20354,-1.199796 -0.9094,-2.304567 -1.91211,-2.994141 l -11.01563,-7.572265 a 1.0059879,1.0059879 0 0 0 0,-0.002 c -0.91752,-0.63013 -2.07214,-0.906249 -3.17578,-0.761719 -1.10364,0.144529 -2.14677,0.709546 -2.87109,1.554687 C 96.656169,102.43389 83.461713,108.80859 67.613281,108.80859 53.879908,108.80858 42.814547,104.34639 33.9375,95.326172 25.021695,86.266563 20.652344,75.621648 20.652344,62.974609 c 0,-12.63349 4.418712,-22.925499 13.4375,-31.373047 a 1.0059879,1.0059879 0 0 0 0.01172,-0.01172 1.0059879,1.0059879 0 0 0 0.01367,-0.01563 1.0059879,1.0059879 0 0 1 0.002,-0.002 1.0059879,1.0059879 0 0 0 0.002,0 c 9.029041,-8.59328 20.051583,-12.851563 33.49414,-12.851563 16.445037,0 29.532496,6.309507 39.958989,19.091797 0.69649,0.853789 1.71138,1.4396 2.79882,1.617188 1.08744,0.177587 2.238,-0.05472 3.16993,-0.642579 l 11.20507,-7.068359 c 1.02072,-0.643549 1.76636,-1.707768 2.02344,-2.886719 0.25708,-1.178951 0.0215,-2.458676 -0.63867,-3.46875 -5.76278,-8.815037 -13.52927,-15.8907048 -23.29297,-20.9785154 -0.077,-0.047771 -0.15461,-0.095577 -0.23437,-0.1386718 l -0.008,-0.00586 c -0.006,-0.00348 -0.0132,-0.00632 -0.0195,-0.00977 a 1.0059879,1.0059879 0 0 0 -0.0176,-0.00977 1.0059879,1.0059879 0 0 0 -0.006,-0.00195 c -7.6e-4,-4.001e-4 -0.001,-0.00155 -0.002,-0.00195 -6.3e-4,-3.719e-4 -0.008,-0.00584 -0.008,-0.00586 a 1.0059879,1.0059879 0 0 0 -0.11719,-0.048828 C 92.03971,-1.2358205 80.615152,-3.9453125 68.289062,-3.9453125 Z m -51.1875,20.0117185 c -0.0679,0.04866 -0.114795,0.08191 -0.136718,0.09766 7.35e-4,-0.001 0.0054,-0.0071 0.0059,-0.0078 0.0094,-0.0064 0.06585,-0.04525 0.130859,-0.08984 z m 17.191407,15.267578 c -0.0039,0.0078 -0.01693,0.03125 -0.01953,0.03516 a 1.0059879,1.0059879 0 0 0 0.01953,-0.03516 z"
       transform="matrix(1.4308241,0,0,1.4006929,-0.21579972,-5.9978855)" />
  </g>
  <g
     inkscape:groupmode="layer"
     id="layer5"
     inkscape:label="o-letter"
     style="display:inline"
     transform="translate(4.3881051,11.524057)">
    <g
       aria-label="o"
       transform="matrix(1.4056435,0,0,1.3112684,1.3377346,0.30168749)"
       id="text395"
       style="font-style:normal;font-variant:normal;font-weight:300;font-stretch:normal;font-size:157.467px;line-height:1.25;font-family:'Heiti SC';-inkscape-font-specification:'Heiti SC, Light';font-variant-ligatures:normal;font-variant-caps:normal;font-variant-numeric:normal;font-variant-east-asian:normal;fill:#d4aa00;stroke-width:0.984173">
      <path
         id="path509"
         style="font-style:normal;font-variant:normal;font-weight:300;font-stretch:normal;font-size:157.467px;font-family:'Heiti SC';-inkscape-font-specification:'Heiti SC, Light';font-variant-ligatures:normal;font-variant-caps:normal;font-variant-numeric:normal;font-variant-east-asian:normal;fill:#d4aa00;stroke-width:0.984173"
         sodipodi:type="inkscape:offset"
         inkscape:radius="6.6307864"
         inkscape:original="M 66.125 20.367188 C 54.05253 20.367187 43.764936 24.724326 35.261719 33.4375 C 26.863479 42.150674 22.664062 52.649215 22.664062 64.931641 C 22.664062 77.004111 26.863479 87.396202 35.261719 96.109375 C 43.659958 104.71757 54.000777 109.02148 66.283203 109.02148 C 78.565628 109.02148 88.853222 104.71757 97.146484 96.109375 C 105.54473 87.396202 109.74414 76.950885 109.74414 64.773438 C 109.74414 52.59599 105.4915 42.150674 96.988281 33.4375 C 88.590041 24.724326 78.302447 20.367188 66.125 20.367188 z M 66.125 30.917969 C 75.048129 30.917969 82.711576 34.330727 89.115234 41.154297 C 95.62387 47.872889 98.878906 55.849827 98.878906 65.087891 C 98.878906 74.430933 95.677096 82.409824 89.273438 89.023438 C 82.974758 95.532073 75.20486 98.787109 65.966797 98.787109 C 56.833711 98.787109 49.170264 95.532074 42.976562 89.023438 C 36.782861 82.514802 33.6875 74.589136 33.6875 65.246094 C 33.6875 55.903052 36.889311 47.872889 43.292969 41.154297 C 49.696626 34.330727 57.306848 30.917969 66.125 30.917969 z "
         d="m 66.125,13.736328 c -13.667905,-1e-6 -26.010778,5.234713 -35.609375,15.070313 a 6.6314495,6.6314495 0 0 0 -0.02734,0.0293 c -9.478683,9.834133 -14.455078,22.301879 -14.455078,36.095703 0,13.610152 4.995122,25.964593 14.455078,35.779299 a 6.6314495,6.6314495 0 0 0 0.02734,0.0293 c 9.526687,9.76486 21.936147,14.91211 35.767578,14.91211 13.830483,0 26.208931,-5.15665 35.636717,-14.9414 9.46933,-9.824422 14.45508,-22.235631 14.45508,-35.937502 0,-13.714547 -5.05648,-26.13537 -14.62891,-35.951172 C 92.238633,18.966032 79.877102,13.736328 66.125,13.736328 Z m 0,23.8125 c 7.232446,0 12.802115,2.439433 18.154297,8.142578 a 6.6314495,6.6314495 0 0 0 0.07422,0.07617 c 5.452357,5.62824 7.894531,11.639822 7.894531,19.320313 0,7.828152 -2.420194,13.829814 -7.738281,19.322265 a 6.6314495,6.6314495 0 0 0 -0.002,0.002 c -5.171902,5.344299 -10.860526,7.744141 -18.541015,7.744141 -7.55761,0 -13.11565,-2.373384 -18.1875,-7.703125 -5.101115,-5.360494 -7.460938,-11.328514 -7.460938,-19.207031 0,-7.828152 2.43068,-13.910013 7.775391,-19.517578 a 6.6314495,6.6314495 0 0 0 0.03516,-0.03711 C 53.493633,39.974893 59.017658,37.548828 66.125,37.548828 Z"
         transform="translate(1.9491029,-0.9497202)" />
    </g>
  </g>
  <g
     inkscape:groupmode="layer"
     id="layer6"
     inkscape:label="d-letter"
     style="display:inline"
     transform="translate(4.3881051,11.524057)">
    <path
       id="text399"
       style="font-style:normal;font-variant:normal;font-weight:normal;font-stretch:normal;font-size:101.712px;line-height:1.25;font-family:'Heiti SC';-inkscape-font-specification:'Heiti SC, Normal';font-variant-ligatures:normal;font-variant-caps:normal;font-variant-numeric:normal;font-variant-east-asian:normal;fill:#000000;stroke-width:1.0595"
       transform="matrix(1.2187819,0,0,1.1523248,15.201135,9.0198282)"
       d="m 86.568359,10.71875 c -3.510741,8.84e-4 -2.888471,2.541008 -2.889354,6.051749 l 0.578011,8.501214 -0.578011,10.276203 c -1.933062,-0.945593 -4.640276,-2.733507 -7.489397,-3.747094 -3.540882,-1.259685 -7.300946,-1.656291 -10.066561,-1.656291 -9.579313,0 -18.396287,3.710557 -25.083985,10.554688 -6.671105,6.760688 -10.261718,15.556128 -10.261718,25.095703 0,9.530364 3.53357,18.333506 10.123047,25.164062 6.600592,6.842078 15.296595,10.587896 24.714843,10.587896 5.639418,0 10.971706,-1.628914 15.869141,-4.371099 1.200788,1.599352 3.084029,2.540611 5.083984,2.541016 h 8.238282 c 3.51074,-8.85e-4 6.356539,-2.846682 6.357419,-6.357422 V 17.076172 c -8.8e-4,-3.51074 -2.846679,-6.356537 -6.357419,-6.357422 z M 66.326172,50.996094 c 4.497472,0 7.35335,1.246293 10.103516,4.189453 0.02452,0.02625 0.04926,0.0523 0.07422,0.07813 2.815792,2.912888 4.113282,6.119201 4.113282,10.939453 0,4.642302 -1.297059,7.660709 -4.332032,10.548828 -3.227332,3.071171 -6.185789,4.25 -9.958984,4.25 -4.106017,0 -6.996328,-1.236573 -10.042969,-4.435547 -3.094259,-3.248972 -4.347656,-6.385528 -4.347656,-10.568359 0,-4.317115 1.240682,-7.460864 4.181641,-10.605469 l 0.002,-0.002 c 2.934358,-3.132448 5.843773,-4.394531 10.207031,-4.394531 z"
       sodipodi:nodetypes="ccccsscsssccccccccscssssscccc" />
  </g>
  <g
     inkscape:groupmode="layer"
     id="layer7"
     inkscape:label="e-letter"
     style="display:inline"
     transform="translate(4.3881051,11.524057)">
    <path
       id="text403"
       style="font-style:normal;font-variant:normal;font-weight:normal;font-stretch:normal;font-size:52.9167px;line-height:1.25;font-family:'Heiti SC';-inkscape-font-specification:'Heiti SC, Normal';font-variant-ligatures:normal;font-variant-caps:normal;font-variant-numeric:normal;font-variant-east-asian:normal;fill:#d4aa00;stroke-width:1.28323"
       sodipodi:type="inkscape:offset"
       inkscape:radius="0.5283078"
       inkscape:original="M 67.416016 47.960938 C 63.031364 47.960938 59.255375 49.56378 56.265625 52.701172 A 0.78370593 0.78370593 0 0 0 56.261719 52.705078 C 53.314355 55.836651 51.816406 59.663562 51.816406 64.037109 C 51.816406 68.410656 53.314239 72.239396 56.261719 75.371094 A 0.78370593 0.78370593 0 0 0 56.263672 75.375 C 59.224323 78.483684 63.05686 80.060547 67.574219 80.060547 C 70.834006 80.060547 73.694916 79.305034 76.091797 77.769531 A 0.78370593 0.78370593 0 0 0 76.099609 77.763672 C 78.491467 76.194014 80.530669 73.807965 82.234375 70.654297 A 0.78370593 0.78370593 0 0 0 81.902344 69.583984 L 78.197266 67.679688 A 0.78370593 0.78370593 0 0 0 77.148438 68.007812 C 74.811494 72.37688 71.621994 74.419922 67.257812 74.419922 C 64.728607 74.419922 62.615667 73.561686 60.771484 71.787109 C 59.159564 70.173781 58.303654 68.04663 58.003906 65.457031 L 82.337891 65.457031 A 0.78370593 0.78370593 0 0 0 83.121094 64.65625 C 83.012168 59.573075 81.480356 55.460629 78.501953 52.480469 C 75.543352 49.484884 71.791978 47.960938 67.416016 47.960938 z M 67.416016 53.761719 C 69.702393 53.761719 71.667093 54.394072 73.40625 55.673828 C 74.856886 56.741277 75.759844 58.226539 76.333984 60.027344 L 58.773438 60.027344 C 59.526881 58.099503 60.483417 56.549053 61.740234 55.548828 C 63.230564 54.362764 65.084656 53.761719 67.416016 53.761719 z "
       d="m 67.416016,47.433594 c -4.508634,0 -8.44387,1.66613 -11.523438,4.892578 -0.0022,0.0022 -0.0037,0.0037 -0.0059,0.0059 a 0.52836063,0.52836063 0 0 0 -0.002,0.002 c -6.52e-4,6.84e-4 -0.0013,0.0013 -0.002,0.002 a 0.52836063,0.52836063 0 0 0 -0.0059,0.0078 c -3.033358,3.222942 -4.587891,7.199181 -4.587891,11.693359 0,4.458016 1.537892,8.404023 4.523438,11.613282 a 0.52836063,0.52836063 0 0 0 0.06836,0.08984 c 3.056149,3.208957 7.053057,4.847657 11.69336,4.847657 3.341417,0 6.311348,-0.777002 8.802734,-2.373047 a 0.52836063,0.52836063 0 0 0 0.01172,-0.0098 c 2.482023,-1.628829 4.576015,-4.0881 6.310547,-7.298828 0.331434,-0.612853 0.06346,-1.475299 -0.556641,-1.792969 l -3.703125,-1.904297 a 0.52836063,0.52836063 0 0 0 -0.002,0 c -0.604747,-0.310069 -1.435651,-0.04866 -1.755859,0.550782 -2.274845,4.252079 -5.225042,6.132812 -9.423829,6.132812 -2.409691,0 -4.358913,-0.792538 -6.11914,-2.486328 -1.377945,-1.382459 -2.112308,-3.216874 -2.460938,-5.421875 h 23.660157 c 0.696321,-2.82e-4 1.325718,-0.643688 1.310547,-1.339844 C 83.537393,59.46249 81.961826,55.197204 78.876953,52.109375 75.824407,49.018671 71.914634,47.433594 67.416016,47.433594 Z m 0,6.855468 c 2.188966,0 4.024645,0.594124 5.677734,1.810547 1.147102,0.844094 1.873542,2.01902 2.419922,3.400391 H 59.625 c 0.67419,-1.501169 1.458706,-2.753483 2.443359,-3.537109 1.391325,-1.107272 3.107098,-1.673829 5.347657,-1.673829 z"
       transform="matrix(1.4224886,0,0,1.3334441,-1.4637358,-1.4221899)" />
    <path
       style="fill:#000000;stroke-width:1.33128"
       d="m 336.6842,330.8407 c 8.41376,-13.26246 22.64107,-19.36096 41.796,-17.91573 15.44313,1.16518 28.70791,8.56919 34.81288,19.43152 l 3.07624,5.47343 h -42.05955 -42.05956 z"
       id="path25"
       transform="matrix(0.26458333,0,0,0.26458333,-4.3881051,-11.524057)" />
    <path
       style="fill:#000000;stroke-width:1.33128"
       d="m 358.28823,407.95073 c -7.45434,-2.46461 -10.77727,-4.40835 -16.72973,-9.78604 -6.4848,-5.85863 -9.74106,-11.1445 -12.35976,-20.06351 l -2.0521,-6.98923 h 58.50461 58.50462 v 4.65949 c 0,5.40166 -0.88736,5.61924 -8.0385,1.971 -7.18009,-3.66301 -10.91983,-2.44469 -15.80458,5.14873 -6.05279,9.40918 -15.88224,18.30756 -24.63267,22.29939 -9.45325,4.31246 -28.45457,5.71508 -37.39189,2.76017 z"
       id="path27"
       transform="matrix(0.26458333,0,0,0.26458333,-4.3881051,-11.524057)" />
  </g>
  <g
     inkscape:groupmode="layer"
     id="layer3"
     inkscape:label="bookmark"
     style="display:inline;opacity:1"
     transform="translate(4.3881051,11.524057)">
    <path
       fill="currentColor"
       d="M 114.85985,134.01598 V 10.425572 c 0,-7.0611728 1.66789,-12.7852134 3.7254,-12.7852134 h 22.35252 c 2.05749,0 3.72539,5.7240406 3.72539,12.7852134 V 134.01598 L 129.7615,123.23577 Z"
       id="path405"
       style="fill:#000000;stroke-width:0.143781"
       sodipodi:nodetypes="cssssccc" />
  </g>
</svg>
