<?xml version="1.0" encoding="UTF-8" standalone="no"?>
<svg
   xmlns:dc="http://purl.org/dc/elements/1.1/"
   xmlns:cc="http://creativecommons.org/ns#"
   xmlns:rdf="http://www.w3.org/1999/02/22-rdf-syntax-ns#"
   xmlns:svg="http://www.w3.org/2000/svg"
   xmlns="http://www.w3.org/2000/svg"
   xmlns:sodipodi="http://sodipodi.sourceforge.net/DTD/sodipodi-0.dtd"
   xmlns:inkscape="http://www.inkscape.org/namespaces/inkscape"
   width="182.82857mm"
   height="181.95015mm"
   viewBox="0 0 182.82858 181.95016"
   version="1.1"
   id="svg8"
   sodipodi:docname="logo-codever-white-with-text.svg"
   inkscape:version="1.0.2 (e86c8708, 2021-01-15)">
  <defs
     id="defs2" />
  <sodipodi:namedview
     id="base"
     pagecolor="#ffffff"
     bordercolor="#666666"
     borderopacity="1.0"
     inkscape:pageopacity="0.0"
     inkscape:pageshadow="2"
     inkscape:zoom="0.12637034"
     inkscape:cx="-95.574879"
     inkscape:cy="-886.94926"
     inkscape:document-units="mm"
     inkscape:current-layer="layer1"
     inkscape:document-rotation="0"
     showgrid="false"
     inkscape:window-width="1440"
     inkscape:window-height="784"
     inkscape:window-x="0"
     inkscape:window-y="23"
     inkscape:window-maximized="0"
     inkscape:snap-text-baseline="true"
     inkscape:snap-center="false" />
  <metadata
     id="metadata5">
    <rdf:RDF>
      <cc:Work
         rdf:about="">
        <dc:format>image/svg+xml</dc:format>
        <dc:type
           rdf:resource="http://purl.org/dc/dcmitype/StillImage" />
        <dc:title></dc:title>
      </cc:Work>
    </rdf:RDF>
  </metadata>
  <g
     inkscape:groupmode="layer"
     id="layer4"
     inkscape:label="c-letter"
     style="display:inline"
     transform="translate(2.9488972,5.8333321)" />
  <g
     inkscape:groupmode="layer"
     id="layer5"
     inkscape:label="o-letter"
     style="display:inline"
     transform="translate(2.9488972,5.8333321)" />
  <g
     inkscape:groupmode="layer"
     id="layer6"
     inkscape:label="d-letter"
     style="display:inline"
     transform="translate(2.9488972,5.8333321)" />
  <g
     inkscape:groupmode="layer"
     id="layer7"
     inkscape:label="e-letter"
     style="display:inline"
     transform="translate(2.9488972,5.8333321)" />
  <g
     inkscape:groupmode="layer"
     id="layer3"
     inkscape:label="bookmark"
     style="display:inline"
     transform="translate(2.9488972,5.8333321)">
    <path
       style="fill:#f2f2f2;stroke-width:7.91325"
       d=""
       id="path84"
       transform="matrix(0.26458333,0,0,0.26458333,-2.9488972,-5.8333321)" />
    <path
       style="fill:#f2f2f2;stroke-width:7.91325"
       d=""
       id="path86"
       transform="matrix(0.26458333,0,0,0.26458333,-2.9488972,-5.8333321)" />
  </g>
  <g
     inkscape:groupmode="layer"
     id="layer1"
     inkscape:label="filling-e-down">
    <g
       id="g164">
      <path
         id="text391"
         style="display:inline;font-style:normal;font-variant:normal;font-weight:normal;font-stretch:normal;font-size:225.50700000000000500px;line-height:1.25;font-family:'Heiti SC';-inkscape-font-specification:'Heiti SC, Normal';font-variant-ligatures:normal;font-variant-caps:normal;font-variant-numeric:normal;font-variant-east-asian:normal;fill:#f9f9f9;stroke-width:1.17452"
         transform="matrix(1.5129789,0,0,1.3842356,2.890026,4.0688956)"
         d="m 68.289062,-2.9394531 c -20.583651,0 -37.581495,6.6246994 -50.615234,19.8085941 -0.001,0.001 -9.46e-4,0.0029 -0.002,0.0039 -9.96e-4,0.001 -0.0029,9.45e-4 -0.0039,0.002 a 3.5557838,3.5557838 0 0 0 -0.146485,0.160156 C 4.6223711,30.011047 -1.9101561,45.816267 -1.9101562,64.103516 c 1e-7,18.359398 6.5048518,34.077892 19.3671872,46.787104 a 3.5557838,3.5557838 0 0 0 0.01367,0.0156 c 13.019598,12.70871 29.325526,19.11133 48.564453,19.11133 12.252807,0 23.649517,-2.49737 34.134764,-7.45703 a 3.5557838,3.5557838 0 0 0 0.29688,-0.11914 c 0.002,-0.001 0.004,-0.003 0.006,-0.004 10.05423,-4.74113 18.25119,-11.60719 24.66015,-20.35352 a 3.5557838,3.5557838 0 0 0 -0.85351,-5.031246 l -11.01563,-7.572265 a 3.5557838,3.5557838 0 0 0 -4.71289,0.617187 C 97.268597,103.26474 83.734161,109.81445 67.613281,109.81445 53.659723,109.81444 42.27627,105.23287 33.220703,96.03125 24.142202,86.806321 19.646484,75.855695 19.646484,62.974609 c 0,-12.870919 4.557053,-23.491256 13.75586,-32.107421 10e-7,-10e-7 0.0019,-0.0039 0.002,-0.0039 -10e-7,1e-6 0.0019,-0.0019 0.002,-0.002 a 3.5557838,3.5557838 0 0 0 0.01953,-0.01758 c 9.206524,-8.762196 20.530526,-13.128906 34.1875,-13.128906 16.70526,0 30.151783,6.482493 40.738279,19.460937 a 3.5557838,3.5557838 0 0 0 4.65235,0.759766 l 11.20507,-7.068359 a 3.5557838,3.5557838 0 0 0 1.08008,-4.953126 C 119.61772,17.238713 111.99208,10.289769 102.37305,5.2773438 a 3.5557838,3.5557838 0 0 0 -0.25391,-0.1503907 3.5557838,3.5557838 0 0 0 -0.0215,-0.011719 c -0.003,-0.00151 -0.005,-0.00435 -0.008,-0.00586 l -0.002,0.00195 C 91.814681,-0.2533237 80.516893,-2.9394531 68.289062,-2.9394531 Z m 30.5625,14.3808591 a 3.5557838,3.5557838 0 0 0 0.03125,0.01367 v 0.002 c -2.660753,-1.320054 2.621358,1.320728 -0.03125,-0.01563 z M 22.425781,22.144531 c -2.314099,1.862226 2.299573,-1.827159 -0.02539,0.02148 v -0.002 a 3.5557838,3.5557838 0 0 0 0.02539,-0.01953 z" />
      <g
         aria-label="o"
         transform="matrix(1.4863524,0,0,1.3263572,4.5327607,6.2056158)"
         id="text395"
         style="display:inline;font-style:normal;font-variant:normal;font-weight:300;font-stretch:normal;font-size:157.46700000000001296px;line-height:1.25;font-family:'Heiti SC';-inkscape-font-specification:'Heiti SC, Light';font-variant-ligatures:normal;font-variant-caps:normal;font-variant-numeric:normal;font-variant-east-asian:normal;fill:none;stroke-width:0.984173">
        <path
           id="path509"
           style="font-style:normal;font-variant:normal;font-weight:300;font-stretch:normal;font-size:157.467px;font-family:'Heiti SC';-inkscape-font-specification:'Heiti SC, Light';font-variant-ligatures:normal;font-variant-caps:normal;font-variant-numeric:normal;font-variant-east-asian:normal;fill:none;stroke-width:0.984173"
           d="m 66.125,16.228516 c -13.068411,-10e-7 -24.639171,4.904517 -33.826172,14.318359 a 4.1396432,4.1396432 0 0 0 -0.01758,0.01758 c -9.0727,9.412926 -13.755859,21.141281 -13.755859,34.367188 0,13.032359 4.694849,24.649984 13.755859,34.050781 A 4.1396432,4.1396432 0 0 0 32.298828,99 c 9.102666,9.33023 20.734992,14.16016 33.984375,14.16016 13.249382,0 24.842116,-4.83622 33.843747,-14.179691 9.06616,-9.406668 13.75586,-21.078495 13.75586,-34.207031 0,-13.137787 -4.75405,-24.817105 -13.925779,-34.21875 C 90.866793,21.129235 79.284556,16.228516 66.125,16.228516 Z m 0,18.828125 c 7.86773,0 14.225376,2.805536 19.972656,8.929687 a 4.1396432,4.1396432 0 0 0 0.04492,0.04883 c 5.84926,6.037946 8.597656,12.786977 8.597656,21.052735 0,8.397381 -2.715409,15.142906 -8.441406,21.05664 -5.595296,5.781805 -12.066274,8.503907 -20.332031,8.503907 -8.149604,0 -14.498795,-2.705798 -19.992188,-8.478516 -5.51166,-5.791915 -8.148437,-12.495007 -8.148437,-20.923828 0,-8.397381 2.720274,-15.211288 8.46289,-21.236328 a 4.1396432,4.1396432 0 0 0 0.02148,-0.02344 C 52.065658,37.853832 58.374811,35.056641 66.125,35.056641 Z" />
      </g>
      <path
         id="text399"
         style="display:inline;font-style:normal;font-variant:normal;font-weight:normal;font-stretch:normal;font-size:101.71200000000000330px;line-height:1.25;font-family:'Heiti SC';-inkscape-font-specification:'Heiti SC, Normal';font-variant-ligatures:normal;font-variant-caps:normal;font-variant-numeric:normal;font-variant-east-asian:normal;fill:#f9f9f9;stroke-width:1.0595"
         transform="matrix(1.2887617,0,0,1.1812753,19.192167,14.855892)"
         d="m 86.568359,13.417969 a 3.6593403,3.6593403 0 0 0 -3.658203,3.658203 V 38.234375 C 77.980758,34.790797 72.32725,32.84375 66.123047,32.84375 c -8.939177,0 -16.920194,3.359334 -23.158203,9.746094 -0.001,0.001 -0.0029,9.16e-4 -0.0039,0.002 -6.225178,6.307647 -9.484376,14.290022 -9.484376,23.203125 0,8.910016 3.214661,16.913395 9.367188,23.291016 6.158924,6.38425 14.012349,9.761718 22.771484,9.761718 6.263976,0 12.087651,-2.027785 17.294922,-5.660156 v 0.171875 a 3.6593403,3.6593403 0 0 0 3.658203,3.658203 h 8.238282 a 3.6593403,3.6593403 0 0 0 3.658203,-3.658203 V 17.076172 A 3.6593403,3.6593403 0 0 0 94.806641,13.417969 Z M 66.326172,48.296875 c 5.121395,0 8.852687,1.595227 12.076172,5.044922 a 3.6593403,3.6593403 0 0 0 0.04297,0.04492 c 3.290038,3.403487 4.871094,7.422903 4.871094,12.816406 0,5.262313 -1.638605,9.14346 -5.169922,12.503906 -3.64201,3.465785 -7.374794,4.994141 -11.820312,4.994141 -4.78098,0 -8.515638,-1.618958 -11.996094,-5.273438 -3.507858,-3.683251 -5.09375,-7.604504 -5.09375,-12.429687 0,-4.930847 1.548627,-8.854976 4.910156,-12.449219 l 0.002,-0.002 c 3.386939,-3.615624 7.162764,-5.25 12.177734,-5.25 z" />
      <path
         id="text403"
         style="display:inline;font-style:normal;font-variant:normal;font-weight:normal;font-stretch:normal;font-size:52.91669999999999874px;line-height:1.25;font-family:'Heiti SC';-inkscape-font-specification:'Heiti SC, Normal';font-variant-ligatures:normal;font-variant-caps:normal;font-variant-numeric:normal;font-variant-east-asian:normal;fill:none;stroke-width:1.28323"
         transform="matrix(1.313231,0,0,1.2189396,16.137987,14.827718)"
         d="m 67.416016,47.976562 c -4.38102,0 -8.15345,1.601638 -11.140625,4.736329 a 0.76844824,0.76844824 0 0 0 -0.002,0.002 c -2.944928,3.128984 -4.441407,6.952135 -4.441407,11.322265 0,4.370131 1.496365,8.195113 4.441407,11.324219 a 0.76844824,0.76844824 0 0 0 0.002,0.002 c 2.957956,3.105854 6.784938,4.681641 11.298828,4.681641 3.25745,0 6.115592,-0.755295 8.509765,-2.289063 a 0.76844824,0.76844824 0 0 0 0.0078,-0.0039 c 2.389248,-1.567944 4.426089,-3.953446 6.128906,-7.105469 a 0.76844824,0.76844824 0 0 0 -0.324219,-1.048828 l -3.705078,-1.904297 a 0.76844824,0.76844824 0 0 0 -1.029297,0.320313 c -2.338835,4.372606 -5.535109,6.421875 -9.904297,6.421875 -2.5343,0 -4.652507,-0.859481 -6.5,-2.638672 -1.616919,-1.619213 -2.473776,-3.755689 -2.771484,-6.355469 h 24.351563 a 0.76844824,0.76844824 0 0 0 0.767578,-0.783203 C 82.996614,59.578367 81.46694,55.469198 78.492188,52.492188 l -0.002,-0.002 c -2.955639,-2.99157 -6.702697,-4.513671 -11.074218,-4.513672 z m 0,5.769532 c 2.289254,0 4.258301,0.634389 6,1.916015 1.458959,1.073574 2.365476,2.566811 2.939453,4.38086 H 58.751953 c 0.755088,-1.940685 1.714529,-3.499929 2.978516,-4.50586 1.493248,-1.188386 3.351499,-1.791015 5.685547,-1.791015 z" />
      <path
         fill="currentColor"
         d="M 122.70423,134.81167 V 15.148823 c 0,-6.8367773 1.5707,-12.3789148 3.50828,-12.3789148 h 21.0498 c 1.93758,0 3.50826,5.5421375 3.50826,12.3789148 V 134.81167 l -14.03318,-10.43762 z"
         id="path405"
         style="display:inline;fill:#f9f9f9;stroke-width:0.137293"
         sodipodi:nodetypes="cssssccc"
         transform="translate(2.9488971,5.833332)" />
      <path
         style="display:inline;fill:#f9f9f9;stroke-width:0.257588"
         d="m 90.79151,81.662674 c 0.0048,-0.605866 1.631002,-3.02443 2.759472,-4.103904 5.179358,-4.954484 15.642588,-3.366393 18.949478,2.876116 0.3712,0.700711 0.6749,1.334476 0.6749,1.408363 0,0.07389 -5.03692,0.13434 -11.19316,0.13434 -8.780268,0 -11.192629,-0.06789 -11.19069,-0.314915 z"
         id="path243"
         transform="translate(2.9488971,5.833332)" />
      <g
         aria-label="codever"
         transform="matrix(1.0224424,0,0,0.97805023,2.9488971,5.833332)"
         id="text30"
         style="display:inline;font-size:109.45399999999999352px;line-height:1.25;font-family:'Arial Black';-inkscape-font-specification:'Arial Black, ';stroke-width:0.273634">
        <path
           d="m 240.89756,95.280431 20.68295,2.351551 q -1.71021,6.466768 -5.61165,11.223308 -3.90144,4.7031 -9.99409,7.32188 -6.03921,2.61877 -15.39197,2.61877 -9.03209,0 -15.0713,-1.65677 -5.98577,-1.71022 -10.31476,-5.45133 -4.32899,-3.79455 -6.78743,-8.87176 -2.45844,-5.077209 -2.45844,-13.46797 0,-8.764871 2.99288,-14.590304 2.19122,-4.275547 5.98577,-7.64254 3.79454,-3.420438 7.80287,-5.077212 6.35988,-2.618773 16.30052,-2.618773 13.89553,0 21.16396,4.970323 7.32187,4.970324 10.26131,14.53686 L 239.989,81.652125 q -0.962,-3.634215 -3.52732,-5.451322 -2.51189,-1.870552 -6.78744,-1.870552 -5.39787,0 -8.76487,3.901437 -3.31355,3.847992 -3.31355,11.70431 0,7.001208 3.31355,10.635422 3.31355,3.63422 8.44421,3.63422 4.27555,0 7.16154,-2.19122 2.93944,-2.19122 4.38244,-6.733989 z"
           style="font-style:normal;font-variant:normal;font-weight:normal;font-stretch:normal;font-size:109.454px;font-family:'Arial Black';-inkscape-font-specification:'Arial Black, ';stroke-width:0.273634"
           id="path104" />
        <path
           d="m 269.00928,89.241221 q 0,-12.986974 8.76487,-21.377735 8.76487,-8.444205 23.67584,-8.444205 17.04874,0 25.76017,9.887203 7.00121,7.963206 7.00121,19.614071 0,13.093865 -8.71143,21.484625 -8.65798,8.33732 -23.9965,8.33732 -13.68176,0 -22.12596,-6.94777 -10.3682,-8.60454 -10.3682,-22.553509 z m 21.80529,-0.05344 q 0,7.589096 3.04632,11.223313 3.09978,3.63421 7.74943,3.63421 4.70311,0 7.69599,-3.58077 3.04633,-3.580769 3.04633,-11.49053 0,-7.375319 -3.04633,-10.95609 -3.04633,-3.634214 -7.53565,-3.634214 -4.75655,0 -7.85632,3.687659 -3.09977,3.634215 -3.09977,11.116422 z"
           style="font-style:normal;font-variant:normal;font-weight:normal;font-stretch:normal;font-size:109.454px;font-family:'Arial Black';-inkscape-font-specification:'Arial Black, ';stroke-width:0.273634"
           id="path106" />
        <path
           d="m 404.54412,39.110433 v 78.349397 h -20.36229 v -8.39076 q -4.27555,5.34443 -7.80288,7.21499 -4.7031,2.45844 -10.47509,2.45844 -11.59742,0 -17.74352,-8.81832 -6.09265,-8.81832 -6.09265,-21.431179 0,-14.109305 6.73398,-21.591513 6.78744,-7.482207 17.20908,-7.482207 5.07721,0 9.19243,1.710219 4.16866,1.710219 7.37532,5.130656 V 39.110433 Z m -21.80529,49.810122 q 0,-6.680542 -2.83255,-9.940646 -2.83255,-3.313549 -7.16154,-3.313549 -3.79455,0 -6.35988,3.153216 -2.56533,3.153215 -2.56533,10.581978 0,6.947764 2.61878,10.207869 2.67221,3.206657 6.57365,3.206657 4.16866,0 6.94776,-3.260102 2.77911,-3.260104 2.77911,-10.635423 z"
           style="font-style:normal;font-variant:normal;font-weight:normal;font-stretch:normal;font-size:109.454px;font-family:'Arial Black';-inkscape-font-specification:'Arial Black, ';stroke-width:0.273634"
           id="path108" />
        <path
           d="m 480.91609,94.478766 h -43.61058 q 0.58788,5.237545 2.83255,7.802874 3.15321,3.68766 8.23042,3.68766 3.20666,0 6.09266,-1.60333 1.76366,-1.01544 3.79455,-3.58077 l 21.43118,1.97744 q -4.91688,8.55109 -11.86465,12.2922 -6.94776,3.68766 -19.93474,3.68766 -11.27675,0 -17.74352,-3.15322 -6.46676,-3.20666 -10.74231,-10.10098 -4.2221,-6.947764 -4.2221,-16.300523 0,-13.30764 8.49765,-21.538068 8.55109,-8.230428 23.56895,-8.230428 12.18531,0 19.23996,3.687659 7.05466,3.68766 10.74232,10.688868 3.68766,7.001208 3.68766,18.224519 z M 458.79013,84.057121 q -0.64133,-6.306432 -3.42044,-9.032093 -2.72566,-2.725662 -7.21498,-2.725662 -5.1841,0 -8.28388,4.115214 -1.97744,2.565329 -2.51188,7.642541 z"
           style="font-style:normal;font-variant:normal;font-weight:normal;font-stretch:normal;font-size:109.454px;font-family:'Arial Black';-inkscape-font-specification:'Arial Black, ';stroke-width:0.273634"
           id="path110" />
        <path
           d="m 484.55029,60.701945 h 22.6604 l 11.00954,35.968039 11.38364,-35.968039 h 21.96562 L 527.4661,117.45983 h -19.29341 z"
           style="font-style:normal;font-variant:normal;font-weight:normal;font-stretch:normal;font-size:109.454px;font-family:'Arial Black';-inkscape-font-specification:'Arial Black, ';stroke-width:0.273634"
           id="path112" />
        <path
           d="m 620.94026,94.478766 h -43.61058 q 0.58788,5.237545 2.83255,7.802874 3.15321,3.68766 8.23042,3.68766 3.20666,0 6.09266,-1.60333 1.76366,-1.01544 3.79455,-3.58077 l 21.43118,1.97744 q -4.91688,8.55109 -11.86465,12.2922 -6.94776,3.68766 -19.93474,3.68766 -11.27675,0 -17.74352,-3.15322 -6.46676,-3.20666 -10.74231,-10.10098 -4.2221,-6.947764 -4.2221,-16.300523 0,-13.30764 8.49765,-21.538068 8.55109,-8.230428 23.56895,-8.230428 12.18531,0 19.23996,3.687659 7.05466,3.68766 10.74232,10.688868 3.68766,7.001208 3.68766,18.224519 z M 598.8143,84.057121 q -0.64133,-6.306432 -3.42044,-9.032093 -2.72566,-2.725662 -7.21498,-2.725662 -5.1841,0 -8.28388,4.115214 -1.97744,2.565329 -2.51188,7.642541 z"
           style="font-style:normal;font-variant:normal;font-weight:normal;font-stretch:normal;font-size:109.454px;font-family:'Arial Black';-inkscape-font-specification:'Arial Black, ';stroke-width:0.273634"
           id="path114" />
        <path
           d="m 631.25501,60.701945 h 20.36229 v 9.299315 q 2.93944,-6.03921 6.03921,-8.283872 3.15321,-2.298107 7.74943,-2.298107 4.80999,0 10.52853,2.992883 l -6.73398,15.498858 q -3.848,-1.60333 -6.09266,-1.60333 -4.27555,0 -6.6271,3.527326 -3.36699,4.970323 -3.36699,18.598629 v 19.026183 h -21.85873 z"
           style="font-style:normal;font-variant:normal;font-weight:normal;font-stretch:normal;font-size:109.454px;font-family:'Arial Black';-inkscape-font-specification:'Arial Black, ';stroke-width:0.273634"
           id="path116" />
      </g>
      <path
         style="display:inline;fill:#f2f2f2;stroke-width:2.16533"
         d="m 216.77848,111.72817 c -20.74249,-8.96948 -19.80977,-41.528841 1.43076,-49.94496 4.0025,-1.585909 12.16961,-2.273531 20.31192,-1.71014 12.11299,0.838134 14.36222,1.739215 20.35421,8.15424 l 6.73638,7.211986 -9.63286,1.822278 c -7.8547,1.485895 -9.9966,1.200526 -11.60336,-1.545928 -2.53217,-4.328276 -15.76886,-4.44815 -19.47503,-0.176367 -3.76514,4.339737 -3.90576,18.763809 -0.2243,23.007104 4.08459,4.707937 17.21349,4.519257 20.3549,-0.292542 1.83148,-2.805318 4.60905,-3.545336 11.08841,-2.954261 10.40257,0.948976 10.87782,3.858266 1.96465,12.02687 -5.65976,5.18697 -8.78803,6.22288 -20.47885,6.7815 -8.64482,0.41308 -16.42371,-0.47578 -20.82683,-2.37978 z"
         id="path82"
         transform="translate(2.9488971,5.833332)" />
      <path
         style="display:inline;fill:#f2f2f2;stroke-width:2.16533"
         d="m 291.46803,110.83378 c -8.31472,-4.26564 -15.63401,-15.343188 -15.63401,-23.66169 0,-14.932042 14.98524,-27.522045 32.7654,-27.528193 25.30319,-0.0087 39.55737,22.176282 26.95395,41.950823 -7.9641,12.49557 -29.10246,16.92557 -44.08534,9.23906 z M 317.8208,97.900349 c 2.94257,-5.259509 2.94257,-16.19701 0,-21.45652 -5.58731,-9.98665 -22.06142,-1.975434 -22.06142,10.728261 0,12.703692 16.47411,20.71491 22.06142,10.728259 z"
         id="path88"
         transform="translate(2.9488971,5.833332)" />
      <path
         style="display:inline;fill:#f2f2f2;stroke-width:2.16533"
         d="m 361.52917,110.43484 c -12.85762,-9.67468 -13.82741,-34.577697 -1.74853,-44.901563 7.77587,-6.646103 18.79037,-7.835584 25.77324,-2.783315 6.89769,4.990623 7.61844,3.995217 7.61844,-10.521678 V 38.462542 h 9.96269 9.96268 v 38.120516 38.120512 h -9.96268 c -8.60303,0 -9.96269,-0.59903 -9.96269,-4.38933 v -4.38931 l -5.83339,4.38931 c -7.40019,5.56826 -18.50091,5.62013 -25.80976,0.1206 z m 27.44737,-11.882316 c 4.59979,-5.301758 3.82058,-19.681248 -1.25905,-23.234284 -8.94348,-6.255711 -16.68447,-0.755955 -16.68447,11.85385 0,12.77228 10.79558,19.61924 17.94352,11.380434 z"
         id="path90"
         transform="translate(2.9488971,5.833332)" />
      <path
         style="display:inline;fill:#f2f2f2;stroke-width:2.16533"
         d="m 440.65817,111.41788 c -9.13469,-4.31247 -14.27689,-13.364852 -14.27689,-25.133102 0,-8.135838 1.24491,-11.063377 7.46596,-17.557001 6.87984,-7.181244 8.57455,-7.850693 21.58582,-8.526896 20.69183,-1.075366 31.49779,6.249952 34.3927,23.314708 l 1.33884,7.892112 h -22.42898 c -23.08417,0 -24.59344,0.645347 -20.13716,8.610449 2.54554,4.54988 15.02897,5.74078 19.1232,1.82432 3.541,-3.387282 17.32876,-1.57949 17.32876,2.27207 0,8.80911 -30.55488,13.83596 -44.39225,7.30334 z m 28.74555,-33.246467 c -1.95764,-6.000585 -4.91023,-7.868378 -12.50301,-7.909346 -3.70118,-0.01997 -6.89095,1.541434 -8.30225,4.063956 -4.11971,7.363547 -2.66667,8.610454 10.034,8.610454 11.76698,0 12.25533,-0.216042 10.77126,-4.765064 z"
         id="path92"
         transform="translate(2.9488971,5.833332)" />
      <path
         style="display:inline;fill:#f2f2f2;stroke-width:2.16533"
         d="m 509.40365,88.877943 c -6.08831,-14.17624 -11.42132,-26.610235 -11.85116,-27.631105 -0.42983,-1.020869 3.89913,-1.561646 9.61992,-1.201727 l 10.40145,0.654398 6.12394,18.001356 c 6.88331,20.233393 6.87086,20.238392 14.5111,-5.82397 l 3.88023,-13.23629 h 9.90781 c 8.49938,0 9.70655,0.526841 8.49208,3.706162 -0.77867,2.038388 -6.11566,14.412095 -11.86001,27.497122 l -10.44426,23.790961 -8.85571,0.009 -8.85573,0.009 -11.06966,-25.774972 z"
         id="path94"
         transform="translate(2.9488971,5.833332)" />
      <path
         style="display:inline;fill:#f2f2f2;stroke-width:2.16533"
         d="m 581.35641,110.04839 c -8.97483,-5.81616 -13.71942,-16.4827 -11.96193,-26.892084 2.62303,-15.535914 13.83241,-23.515701 33.03308,-23.515701 17.60527,0 27.60339,7.753566 30.7225,23.825324 l 1.5413,7.941772 h -22.23963 c -19.93997,0 -22.2396,0.394179 -22.2396,3.812048 0,8.449281 8.14503,10.946391 21.0944,6.467151 3.86176,-1.3358 9.82358,-1.754109 13.25577,-0.93008 l 6.23755,1.49756 -5.87995,5.62464 c -4.96639,4.75079 -8.20535,5.74634 -20.84735,6.40783 -12.89414,0.67467 -16.04074,0.0876 -22.71614,-4.23846 z m 30.995,-30.923964 c 0,-5.394309 -4.35639,-8.894788 -11.06964,-8.894788 -6.71327,0 -11.06964,3.500479 -11.06964,8.894788 0,3.162588 1.88593,3.812051 11.06964,3.812051 9.1837,0 11.06964,-0.649463 11.06964,-3.812051 z"
         id="path96"
         transform="translate(2.9488971,5.833332)" />
      <path
         style="display:inline;fill:#f2f2f2;stroke-width:2.16533"
         d="M 645.56038,87.17209 V 59.640605 h 9.96267 c 9.28688,0 9.96269,0.378516 9.96269,5.580122 v 5.58012 l 4.58856,-5.58012 c 2.97745,-3.620869 6.73457,-5.580122 10.70064,-5.580122 8.37616,0 9.43173,1.647981 5.59799,8.739732 -2.25868,4.178175 -4.98159,6.084914 -8.68953,6.084914 -7.62281,0 -9.98372,5.726389 -9.98372,24.215547 v 16.022772 h -11.06967 -11.06963 z"
         id="path98"
         transform="translate(2.9488971,5.833332)" />
      <path
         style="display:inline;fill:#f9f9f9;stroke-width:0.257588"
         d="m 101.44164,105.057 c -4.753222,-1.22436 -7.973812,-4.67371 -8.869126,-9.499115 l -0.17529,-0.944754 h 16.077416 l 17.62923,-0.395851 -0.10346,1.669926 c 0,0 0.29606,3.760078 -0.0507,3.760078 -0.13055,0 -4.56717,0.0047 -6.06288,0.0047 -1.2534,-5.43e-4 -3.77982,0.0047 -4.0613,0.0047 -0.33976,0 1.5202,-1.949118 0.73159,-0.814392 -1.6386,2.357808 -4.01719,4.461948 -6.03154,5.335648 -2.89116,1.25399 -6.33583,1.58759 -9.08392,0.87973 z"
         id="path245"
         sodipodi:nodetypes="sscccssssssss" />
    </g>
  </g>
</svg>
