<?xml version="1.0" standalone="no"?>
<!DOCTYPE svg PUBLIC "-//W3C//DTD SVG 20010904//EN"
 "http://www.w3.org/TR/2001/REC-SVG-20010904/DTD/svg10.dtd">
<svg version="1.0" xmlns="http://www.w3.org/2000/svg"
 width="725.000000pt" height="725.000000pt" viewBox="0 0 725.000000 725.000000"
 preserveAspectRatio="xMidYMid meet">
<metadata>
Created by potrace 1.16, written by Peter Selinger 2001-2019
</metadata>
<g transform="translate(0.000000,725.000000) scale(0.100000,-0.100000)"
fill="#000000" stroke="none">
<path d="M3823 6732 c-18 -9 -33 -19 -33 -24 0 -9 131 -451 135 -456 6 -7 75
33 72 42 -2 6 -32 108 -67 226 -35 118 -66 218 -69 221 -3 4 -21 0 -38 -9z"/>
<path d="M5335 6678 c-30 -16 -30 -16 -11 -37 14 -15 15 -23 6 -38 -9 -13 -10
-263 -3 -990 7 -881 10 -974 24 -989 11 -11 24 -14 39 -9 12 4 103 72 201 151
99 79 184 144 189 144 29 0 74 -32 202 -145 79 -69 161 -135 182 -147 76 -39
73 -104 46 956 -5 198 -7 362 -5 365 3 2 15 -4 26 -15 l22 -19 -7 29 c-8 35
-135 174 -231 256 -38 32 -126 107 -195 165 -69 59 -170 133 -225 165 -55 32
-118 77 -141 99 -23 23 -47 41 -54 41 -8 0 -21 6 -29 14 -12 11 -21 12 -36 4z"/>
<path d="M3712 6502 c-27 -13 -33 -21 -29 -39 4 -20 1 -22 -17 -17 -54 18
-114 -8 -154 -68 -22 -34 -27 -52 -26 -102 1 -68 28 -134 66 -160 50 -35 141
-7 176 54 9 16 20 30 24 30 5 0 22 -46 53 -147 6 -19 65 5 65 26 0 14 -118
432 -123 437 -1 1 -17 -6 -35 -14z m-20 -119 c21 -25 38 -79 38 -125 0 -44
-31 -83 -75 -94 -57 -14 -113 68 -99 145 14 72 98 118 136 74z"/>
<path d="M2503 6372 c-19 -14 -24 -32 -33 -122 -6 -57 -13 -106 -15 -108 -2
-2 -24 28 -49 67 -25 39 -48 71 -51 71 -11 0 -55 -32 -55 -40 0 -4 29 -46 65
-92 78 -102 81 -130 23 -195 -16 -17 -18 -25 -9 -42 7 -12 14 -21 16 -21 11 0
64 90 79 134 13 37 66 329 66 360 0 11 -15 6 -37 -12z"/>
<path d="M3300 6309 c-52 -21 -100 -84 -100 -132 0 -14 8 -35 19 -48 15 -19
27 -22 77 -21 58 1 94 -15 94 -43 0 -27 -43 -65 -86 -76 -41 -11 -57 -30 -34
-44 17 -10 109 37 140 72 22 25 30 44 30 72 0 54 -28 76 -93 74 -62 -2 -87 10
-87 41 0 28 17 44 67 61 45 16 61 55 21 54 -13 0 -34 -5 -48 -10z"/>
<path d="M2022 6203 l-21 -18 29 -160 c16 -88 30 -170 30 -182 0 -26 3 -27 31
-13 10 6 19 21 19 33 0 20 4 22 39 19 36 -4 44 1 83 40 52 51 74 114 63 177
-18 108 -112 114 -182 12 -24 -36 -28 -33 -38 29 -9 61 -15 80 -25 80 -4 0
-17 -8 -28 -17z m192 -98 c54 -54 -1 -197 -71 -183 -23 4 -43 44 -43 86 0 75
73 137 114 97z"/>
<path d="M1909 6013 c-13 -9 -25 -17 -27 -19 -2 -1 4 -41 13 -88 12 -67 13
-91 4 -109 -20 -38 -41 -57 -65 -57 -25 0 -40 31 -50 110 -9 68 -16 76 -48 55
-16 -11 -25 -24 -22 -34 3 -9 10 -47 17 -86 14 -86 31 -115 66 -115 33 0 88
41 110 83 13 25 18 28 21 15 4 -21 11 -22 36 -3 18 14 18 17 -4 137 -12 68
-23 124 -24 125 -1 2 -13 -5 -27 -14z"/>
<path d="M4783 5969 c-39 -11 -73 -53 -73 -89 0 -37 27 -68 81 -94 34 -16 45
-27 47 -48 5 -45 -31 -55 -110 -32 -25 7 -22 -14 4 -36 22 -18 32 -18 124 -4
24 3 36 13 48 39 15 30 15 38 2 68 -11 27 -27 41 -70 61 -45 22 -56 31 -56 51
0 30 30 48 65 39 22 -5 25 -3 25 20 0 16 -6 26 -14 26 -8 0 -20 2 -28 4 -7 2
-27 0 -45 -5z"/>
<path d="M4577 5963 c-3 -5 -8 -87 -12 -183 -8 -191 -14 -214 -66 -232 -16 -5
-26 -14 -23 -19 9 -16 58 -10 92 11 27 17 32 26 32 58 0 21 7 47 15 58 11 15
14 53 15 167 l0 147 -24 0 c-14 0 -27 -3 -29 -7z"/>
<path d="M1621 5824 c-11 -14 -23 -35 -27 -47 -6 -20 -7 -20 -20 -2 -13 17
-16 18 -30 3 -14 -14 -14 -25 0 -119 23 -146 21 -141 54 -122 l28 16 -14 78
c-17 92 -12 121 29 158 20 18 28 33 23 44 -9 23 -19 21 -43 -9z"/>
<path d="M2293 5678 c-18 -13 -33 -28 -33 -33 0 -6 46 -126 103 -267 l103
-258 37 27 c20 14 37 30 37 35 0 17 -202 518 -208 518 -4 0 -22 -10 -39 -22z"/>
<path d="M3373 5546 c-89 -29 -144 -80 -185 -173 -26 -58 -21 -127 12 -173 29
-41 135 -93 182 -88 49 5 40 19 -24 40 -80 27 -118 71 -118 139 0 84 55 165
138 201 55 25 115 19 178 -16 42 -24 43 -24 61 -4 17 19 17 20 -7 38 -53 40
-171 58 -237 36z"/>
<path d="M3657 5238 c-102 -106 -181 -195 -176 -196 12 -5 416 365 408 372 -2
2 -13 6 -25 10 -17 5 -52 -26 -207 -186z"/>
<path d="M2103 5305 c-30 -32 -45 -57 -49 -85 -6 -39 -17 -50 -29 -30 -3 6
-22 10 -41 10 -48 0 -110 -57 -128 -118 l-13 -47 -14 28 -15 27 -31 -27 -31
-28 68 -160 c38 -88 71 -164 73 -170 5 -12 57 14 64 32 3 7 -13 62 -36 122
-49 131 -52 169 -13 212 40 45 73 36 106 -29 13 -26 27 -58 31 -70 4 -13 18
-48 31 -78 26 -58 28 -59 78 -20 18 15 17 19 -29 140 -52 136 -54 169 -13 213
26 28 59 30 82 4 9 -10 36 -67 60 -127 24 -59 48 -109 52 -111 5 -1 23 10 41
25 l32 27 -48 119 c-61 152 -87 186 -143 186 -36 0 -47 -6 -85 -45z"/>
<path d="M3939 5302 c-126 -66 -190 -235 -125 -333 42 -62 203 -125 227 -88
16 25 10 39 -16 39 -14 0 -42 7 -63 16 -118 49 -134 160 -36 264 71 76 176 91
257 35 l35 -23 23 25 24 24 -25 19 c-40 31 -109 50 -181 50 -54 0 -77 -5 -120
-28z"/>
<path d="M4380 5044 c-19 -36 -38 -68 -42 -70 -4 -2 -37 7 -74 21 -53 20 -69
23 -76 13 -16 -26 -7 -35 57 -57 36 -13 65 -25 65 -27 0 -3 -16 -35 -35 -73
-19 -38 -31 -71 -28 -75 19 -19 43 -1 73 55 17 33 38 63 45 66 8 2 39 -5 70
-16 68 -26 72 -26 84 -2 9 17 4 21 -52 41 -34 13 -65 26 -69 29 -5 4 8 38 28
75 29 55 34 70 23 77 -26 16 -34 9 -69 -57z"/>
<path d="M1525 4990 c-27 -28 -28 -30 -15 -76 12 -43 12 -48 -7 -63 -17 -13
-19 -21 -12 -39 7 -20 14 -23 38 -17 28 6 29 4 71 -92 46 -106 73 -143 102
-143 24 0 56 16 86 43 24 22 27 34 13 56 -7 11 -13 10 -33 -3 -47 -31 -61 -15
-109 120 l-31 87 37 31 c31 27 36 35 30 59 -9 33 -12 33 -56 1 l-34 -25 -19
45 c-11 25 -23 46 -26 46 -3 0 -19 -13 -35 -30z"/>
<path d="M4777 4890 c-21 -39 -40 -70 -41 -70 -2 0 -34 11 -71 25 -64 24 -68
25 -80 8 -7 -10 -12 -21 -9 -24 2 -3 32 -16 66 -29 35 -12 65 -24 67 -26 2 -2
-13 -33 -34 -70 -35 -64 -36 -69 -19 -81 10 -7 20 -13 23 -13 3 0 21 30 40 66
19 36 39 68 46 70 6 3 41 -6 77 -19 l66 -24 10 23 c10 21 7 24 -51 45 -34 12
-65 25 -69 28 -5 4 8 38 28 75 29 55 34 70 23 77 -26 16 -34 9 -72 -61z"/>
<path d="M1093 4771 c-13 -11 -23 -24 -23 -29 0 -6 16 -48 36 -94 20 -45 63
-150 96 -233 33 -82 63 -154 68 -158 10 -12 50 14 50 32 0 8 -18 62 -41 120
-48 122 -48 165 -3 212 32 34 82 39 107 12 8 -10 34 -61 56 -113 23 -52 45
-98 50 -103 4 -4 18 1 31 11 l23 19 -44 119 c-50 136 -80 177 -128 177 -43 0
-80 -29 -113 -89 -15 -27 -33 -49 -40 -49 -7 0 -28 41 -47 93 -19 50 -39 92
-45 92 -6 -1 -21 -9 -33 -19z"/>
<path d="M5095 4352 c-71 -14 -131 -26 -132 -27 -1 0 -18 -196 -38 -435 -19
-239 -37 -436 -40 -438 -2 -2 -90 170 -195 384 -105 213 -192 390 -195 392 -5
5 -265 -38 -274 -44 -2 -2 33 -70 77 -151 44 -81 164 -303 267 -493 103 -190
189 -348 191 -351 4 -6 330 53 339 62 6 7 21 115 54 389 69 577 81 678 86 708
3 17 2 31 -2 31 -4 -1 -66 -13 -138 -27z"/>
<path d="M6414 4345 c-3 -8 3 -29 14 -47 11 -18 41 -73 67 -123 84 -158 106
-195 116 -190 5 4 9 13 9 21 0 10 12 14 39 14 104 0 108 159 7 248 -52 46 -91
40 -122 -19 -19 -38 -30 -30 -69 51 -28 59 -50 75 -61 45z m247 -126 c59 -63
61 -145 5 -171 -33 -15 -69 8 -96 62 -54 105 16 189 91 109z"/>
<path d="M2593 4312 c-99 -19 -133 -29 -133 -40 0 -9 23 -134 50 -280 28 -145
49 -266 47 -268 -2 -3 -21 12 -43 33 -21 20 -63 47 -92 61 -109 50 -269 15
-362 -78 -83 -83 -116 -204 -107 -388 14 -284 130 -533 285 -609 50 -25 68
-28 152 -28 80 0 103 4 144 24 65 32 113 82 144 149 28 62 36 57 47 -25 4 -29
10 -55 15 -58 4 -2 68 7 142 21 l134 25 -141 739 c-77 406 -142 740 -145 743
-3 2 -65 -7 -137 -21z m-117 -703 c23 -11 54 -36 69 -55 97 -127 135 -391 74
-510 -31 -61 -66 -86 -127 -92 -120 -11 -210 105 -248 322 -30 174 7 300 101
342 43 19 82 17 131 -7z"/>
<path d="M6305 4125 c-69 -68 10 -255 107 -255 40 0 98 36 98 61 0 24 -2 24
-42 -1 -18 -11 -42 -20 -54 -20 -21 0 -64 34 -64 50 0 6 27 27 60 47 33 21 60
44 60 50 0 7 -16 31 -36 53 -45 49 -90 55 -129 15z"/>
<path d="M3570 4089 c-154 -22 -290 -107 -363 -226 -53 -84 -70 -157 -70 -288
2 -304 134 -528 354 -596 113 -35 298 -23 461 31 85 28 229 100 235 117 5 13
0 49 -28 190 l-10 52 -66 -45 c-91 -62 -149 -90 -240 -115 -194 -54 -330 -12
-382 118 -26 65 -38 60 347 133 194 37 354 69 357 71 9 9 -33 186 -60 254 -53
133 -122 213 -228 265 -97 47 -181 58 -307 39z m153 -223 c18 -7 49 -32 69
-55 36 -42 66 -118 51 -131 -10 -10 -426 -90 -435 -83 -11 6 -9 59 3 113 18
79 71 137 147 160 43 13 130 11 165 -4z"/>
<path d="M6187 4058 c-16 -12 -14 -21 18 -123 19 -60 33 -110 31 -112 -1 -1
-35 38 -75 87 -63 77 -76 88 -92 79 -11 -5 -19 -11 -19 -13 0 -1 14 -51 30
-111 17 -59 29 -109 27 -112 -2 -2 -35 37 -72 86 -58 77 -71 89 -87 80 -10 -5
-18 -14 -18 -20 0 -16 180 -219 194 -219 33 0 34 22 6 128 -15 59 -27 108 -26
109 0 1 32 -36 70 -82 59 -72 71 -83 87 -74 11 5 19 16 19 25 0 22 -62 268
-69 277 -4 4 -15 1 -24 -5z"/>
<path d="M6673 3515 c-11 -8 -28 -33 -37 -55 -14 -35 -19 -40 -40 -34 -13 3
-26 2 -29 -3 -6 -9 107 -390 118 -401 3 -3 11 0 17 6 9 9 8 28 -6 81 -20 76
-17 91 19 91 45 0 95 87 95 166 0 43 -25 122 -46 145 -20 23 -61 25 -91 4z
m79 -86 c20 -38 24 -116 7 -152 -6 -14 -22 -30 -35 -37 -51 -28 -94 37 -94
142 0 39 5 50 30 72 38 32 68 24 92 -25z"/>
<path d="M6277 3362 c-15 -16 -11 -33 49 -222 36 -113 67 -207 70 -209 2 -3
12 2 20 11 15 14 14 23 -10 101 -40 132 -30 207 29 207 31 0 48 -26 75 -118
24 -78 32 -89 49 -68 8 10 4 37 -17 109 -36 120 -54 149 -90 145 -24 -3 -37
-17 -78 -84 -11 -18 -12 -18 -22 6 -6 14 -18 51 -27 83 -17 61 -23 67 -48 39z"/>
<path d="M6162 3094 c-27 -19 -52 -65 -52 -96 l0 -23 -18 23 c-17 22 -19 22
-34 5 -16 -17 -13 -31 44 -213 33 -107 64 -199 69 -205 6 -6 15 -3 26 7 15 16
15 21 -2 79 -9 35 -19 69 -22 76 -3 8 3 13 19 13 61 0 108 77 107 175 0 136
-64 210 -137 159z m60 -71 c40 -47 48 -131 18 -181 -43 -71 -114 -9 -114 100
0 75 58 124 96 81z"/>
<path d="M633 3051 c-79 -20 -123 -76 -123 -159 0 -60 17 -101 56 -131 49 -39
174 -40 174 -1 0 16 -7 19 -48 18 -58 -2 -87 13 -108 54 -24 47 -13 106 27
142 28 25 38 28 80 24 42 -4 48 -2 53 16 3 11 2 24 -2 28 -12 12 -76 17 -109
9z"/>
<path d="M877 3045 c-47 -16 -66 -40 -67 -81 0 -41 25 -71 81 -98 34 -16 45
-27 47 -48 4 -38 -33 -56 -83 -41 -37 12 -45 9 -45 -18 0 -19 28 -29 88 -29
88 0 136 56 107 126 -10 26 -27 40 -69 60 -45 21 -56 31 -56 50 0 33 33 49 73
35 32 -12 46 -3 47 27 0 24 -73 34 -123 17z"/>
<path d="M1168 3053 c-42 -7 -78 -49 -78 -93 0 -42 21 -66 88 -99 78 -40 44
-104 -44 -80 -28 8 -39 8 -45 -3 -23 -36 2 -51 86 -51 63 0 93 15 110 57 25
60 4 99 -75 136 -39 18 -50 29 -50 46 0 32 29 46 71 34 24 -7 35 -6 41 3 10
15 10 35 1 40 -14 8 -78 14 -105 10z"/>
<path d="M5425 2559 c-50 -11 -115 -39 -115 -50 0 -6 18 -53 26 -67 0 -1 21 7
45 18 43 19 121 26 154 14 15 -6 45 -53 45 -72 0 -6 -28 -15 -62 -21 -91 -16
-167 -57 -195 -106 -52 -92 -5 -202 95 -221 43 -8 119 10 147 35 36 33 45 34
55 5 10 -24 14 -26 51 -21 22 3 43 8 46 10 8 8 -16 317 -28 361 -26 98 -133
145 -264 115z m165 -309 c0 -51 -4 -65 -24 -85 -47 -47 -117 -44 -145 6 -37
66 32 135 137 138 l32 1 0 -60z"/>
<path d="M5096 2522 c-3 -5 -21 -86 -41 -181 -19 -95 -38 -177 -41 -183 -9
-14 -31 9 -39 40 -10 40 -106 296 -114 305 -4 4 -36 4 -70 0 l-61 -8 83 -175
c46 -96 96 -200 112 -230 29 -53 31 -55 76 -58 30 -2 50 2 57 11 10 11 162
465 162 482 0 9 -119 5 -124 -3z"/>
<path d="M4387 2489 c-31 -7 -92 -33 -105 -45 -2 -1 2 -19 9 -39 10 -26 17
-34 29 -29 75 33 145 43 185 28 15 -6 45 -54 45 -73 0 -5 -21 -13 -47 -17
-109 -15 -189 -57 -218 -114 -8 -16 -15 -51 -15 -79 0 -55 28 -99 81 -126 55
-29 144 -11 197 38 l24 22 15 -22 c12 -17 25 -23 54 -23 21 0 40 3 42 8 8 12
-13 314 -24 356 -26 99 -139 146 -272 115z m176 -291 c7 -54 -13 -102 -52
-122 -65 -34 -125 -6 -125 58 0 58 60 103 140 105 29 1 32 -2 37 -41z"/>
<path d="M4010 2453 c0 -5 7 -89 15 -188 8 -99 15 -221 15 -272 0 -83 -2 -94
-25 -121 -14 -17 -39 -33 -56 -37 -28 -6 -29 -9 -23 -43 4 -21 9 -40 11 -44 8
-14 48 -8 98 16 115 54 128 111 105 471 -16 243 -10 225 -80 225 -33 0 -60 -3
-60 -7z"/>
<path d="M2813 2299 l-32 -20 32 -28 c18 -15 96 -80 174 -145 l143 -118 35 22
35 22 -171 141 c-94 78 -174 143 -178 144 -3 2 -20 -7 -38 -18z"/>
<path d="M2730 2083 c-31 -11 -70 -57 -70 -82 0 -25 -3 -26 -52 -26 -64 0
-116 -32 -125 -76 -6 -31 -13 -35 -30 -18 -9 9 -19 7 -42 -7 l-30 -19 106 -85
c59 -47 113 -89 121 -94 16 -9 62 11 61 28 0 6 -27 33 -60 60 -96 78 -107 107
-55 141 38 25 72 12 161 -60 44 -36 84 -65 90 -65 5 0 21 9 34 19 l24 18 -82
68 c-47 40 -81 76 -81 87 0 26 36 58 66 58 34 0 57 -13 141 -82 l72 -60 30 18
c17 10 31 21 31 24 0 8 -124 109 -169 137 -35 22 -103 30 -141 16z"/>
<path d="M2152 1807 l-22 -23 25 -24 c23 -21 24 -25 10 -40 -14 -15 -14 -19 1
-30 13 -11 19 -11 36 -1 22 14 21 14 121 -64 33 -25 70 -48 83 -51 33 -9 84 3
114 25 20 16 22 22 11 35 -12 14 -16 14 -43 0 -39 -20 -64 -10 -138 57 l-55
49 30 24 c28 23 29 26 13 42 -15 16 -18 15 -46 -5 -37 -26 -36 -26 -76 4 -18
14 -35 25 -38 25 -2 0 -14 -10 -26 -23z"/>
<path d="M5707 1813 c-8 -10 -18 -40 -22 -66 -9 -56 -21 -65 -65 -42 -33 17
-60 14 -80 -10 -10 -12 -2 -19 43 -39 30 -13 57 -28 60 -33 3 -5 -1 -38 -8
-73 -18 -82 -18 -80 0 -80 20 0 31 25 40 88 8 58 15 61 69 35 33 -15 36 -15
62 2 l28 18 -56 28 c-31 16 -59 33 -62 38 -6 8 -1 41 19 129 6 26 -6 29 -28 5z"/>
<path d="M1758 1622 c-16 -9 -28 -20 -28 -24 0 -3 77 -68 171 -142 143 -115
173 -135 189 -126 10 6 21 14 24 19 3 4 -28 38 -69 75 -41 37 -75 75 -75 85 0
29 43 61 82 61 37 0 67 -17 159 -90 45 -36 54 -39 71 -28 11 7 20 17 21 23 0
5 -33 40 -76 76 -86 75 -134 94 -194 77 -40 -11 -93 -58 -93 -82 0 -27 -21
-18 -85 39 -35 30 -65 55 -67 55 -1 0 -15 -8 -30 -18z"/>
<path d="M5380 1589 c-51 -31 -90 -70 -90 -91 0 -25 8 -23 32 7 30 38 74 58
98 45 28 -15 25 -23 -15 -59 -49 -43 -85 -99 -85 -132 0 -30 30 -69 53 -69 23
0 75 38 93 69 12 19 26 31 40 31 45 0 48 23 13 110 -44 111 -72 129 -139 89z"/>
<path d="M1747 1442 c-25 -15 -28 -21 -23 -52 13 -74 13 -75 -14 -73 -14 1
-50 5 -80 8 -41 5 -60 3 -75 -8 -18 -14 -15 -15 40 -26 143 -27 136 -21 150
-123 7 -52 21 -60 49 -29 15 16 16 25 6 61 -7 26 -8 46 -2 52 6 6 35 5 76 -3
53 -9 74 -9 94 1 35 15 19 24 -77 41 -40 7 -79 19 -87 27 -8 7 -14 32 -15 55
-1 23 -4 52 -7 64 -7 21 -8 21 -35 5z"/>
<path d="M5163 1420 l-22 -20 50 -119 c52 -126 58 -165 34 -197 -16 -21 -20
-54 -7 -54 15 0 51 44 67 82 12 29 13 47 5 80 -13 60 -85 241 -96 245 -6 2
-20 -6 -31 -17z"/>
<path d="M4965 1291 c-16 -10 -46 -35 -64 -55 -27 -28 -32 -39 -23 -48 9 -9
20 -4 50 25 24 23 47 37 64 37 39 0 42 -26 7 -51 -49 -35 -89 -97 -89 -139 0
-41 24 -70 58 -70 25 0 88 53 97 81 4 11 15 19 29 19 47 0 51 23 20 106 -16
41 -37 84 -47 95 -23 24 -63 24 -102 0z"/>
<path d="M4100 946 c0 -89 -3 -191 -6 -225 l-7 -61 47 0 46 0 0 103 c0 57 3
159 7 225 l6 122 -46 0 -47 0 0 -164z"/>
<path d="M3162 970 c-18 -4 -41 -15 -51 -24 -24 -21 -38 -20 -44 4 -4 15 -14
20 -36 20 l-31 0 2 -212 3 -213 30 0 c30 0 30 0 33 65 2 36 7 69 12 74 5 5 29
0 55 -10 41 -15 53 -16 94 -5 79 21 121 78 121 163 0 96 -90 162 -188 138z
m75 -74 c25 -21 28 -31 28 -81 0 -50 -3 -60 -28 -81 -37 -32 -101 -33 -134 -2
-19 17 -23 32 -23 76 0 46 4 58 29 83 38 37 88 39 128 5z"/>
<path d="M3543 970 c-78 -18 -123 -76 -123 -155 0 -61 15 -93 58 -122 41 -27
105 -37 178 -28 49 6 55 9 52 27 -3 20 -9 21 -79 19 -68 -2 -79 0 -102 21 -14
13 -27 32 -29 43 -3 19 3 20 121 23 l123 3 -4 50 c-6 59 -42 104 -97 119 -40
11 -52 11 -98 0z"/>
<path d="M3967 965 c-16 -8 -37 -25 -47 -37 l-19 -23 -1 33 c0 30 -2 32 -35
32 l-35 0 -2 -115 c-1 -63 -2 -132 -2 -152 -1 -38 -1 -38 39 -38 l40 0 5 98
c5 93 7 100 33 123 16 14 41 24 58 24 27 0 29 3 29 35 0 40 -16 45 -63 20z"/>
</g>
</svg>
